<?xml version="1.0" encoding="UTF-8"?> <svg xmlns="http://www.w3.org/2000/svg" width="561" height="1018" viewBox="0 0 561 1018" fill="none"> <path d="M283.16 1017.17L284.105 942.537C279.233 942.318 274.312 941.809 269.464 941.009L266.022 1015.37C271.67 1016.3 277.439 1016.9 283.136 1017.14L283.16 1017.17ZM313.145 1015.45C318.842 1014.52 324.587 1013.26 330.186 1011.66L324.296 937.855C319.52 939.214 314.624 940.281 309.752 941.081L313.145 1015.45ZM259.647 1014.21L264.01 940.014C259.162 938.995 254.29 937.686 249.514 936.109L242.654 1009.63C248.254 1011.47 253.975 1013.02 259.647 1014.18L259.647 1014.21ZM336.561 1009.72C342.185 1007.88 347.833 1005.67 353.384 1003.15L344.076 930.579C339.349 932.713 334.525 934.605 329.75 936.182L336.586 1009.72L336.561 1009.72ZM236.328 1007.39L244.133 934.193C239.358 932.398 234.558 930.288 229.88 927.935L219.602 1000.04C225.104 1002.81 230.728 1005.28 236.328 1007.39ZM359.614 1000.19C365.117 997.425 370.668 994.296 376.073 990.876L363.42 920.125C358.814 923.036 354.111 925.704 349.409 928.057L359.638 1000.19L359.614 1000.19ZM382.157 986.874C387.515 983.212 392.896 979.161 398.132 974.868L382.23 906.47C377.77 910.132 373.189 913.577 368.607 916.705L382.182 986.85L382.157 986.874ZM403.998 969.872C409.185 965.336 414.324 960.412 419.342 955.295L400.289 889.807C396.023 894.197 391.635 898.369 387.224 902.25L403.998 969.896L403.998 969.872ZM169.521 964.487L187.168 897.617C182.829 893.566 178.515 889.201 174.272 884.616L154.395 949.231C159.34 954.615 164.431 959.733 169.497 964.487L169.521 964.487ZM424.942 949.352C429.887 943.992 434.783 938.268 439.534 932.301L417.524 870.185C413.476 875.254 409.282 880.154 405.065 884.738L424.942 949.352ZM148.893 943.07L169.594 879.377C165.449 874.624 161.328 869.53 157.353 864.291L134.543 925.413C139.197 931.549 144.021 937.516 148.893 943.094L148.893 943.07ZM444.867 925.486C449.521 919.349 454.151 912.825 458.611 906.13L433.814 847.822C430.008 853.546 426.057 859.1 422.081 864.339L444.867 925.461L444.867 925.486ZM129.331 918.33L152.893 858.252C148.99 852.819 145.111 847.094 141.378 841.225L115.853 898.393C120.217 905.281 124.75 912 129.331 918.33ZM463.581 898.442C467.944 891.553 472.259 884.301 476.38 876.928L448.988 822.888C445.473 829.194 441.813 835.355 438.08 841.249L463.605 898.417L463.581 898.442ZM110.981 890.486L137.233 834.482C133.573 828.418 129.985 822.088 126.543 815.612L98.473 868.414C102.497 875.982 106.69 883.404 110.981 890.486ZM480.985 868.487C485.009 860.92 488.96 853.013 492.742 844.984L462.975 795.602C459.751 802.466 456.381 809.233 452.939 815.685L481.009 868.487L480.985 868.487ZM93.9643 859.78L122.689 808.263C119.32 801.641 116.047 794.729 112.92 787.743L82.5229 835.768C86.1832 843.966 90.0374 852.042 93.9643 859.804L93.9643 859.78ZM496.911 835.816C500.571 827.618 504.159 819.105 507.528 810.494L475.58 766.157C472.695 773.506 469.641 780.782 466.514 787.792L496.911 835.816ZM78.4263 826.381L109.43 779.739C106.375 772.584 103.418 765.162 100.63 757.692L68.1242 800.574C71.3966 809.33 74.863 818.013 78.4263 826.381ZM511.286 800.695C514.558 791.939 517.734 782.868 520.691 773.724L486.827 734.771C484.282 742.557 481.591 750.318 478.804 757.789L511.286 800.695ZM64.4881 790.581L97.5276 749.178C94.8127 741.562 92.219 733.68 89.795 725.773L55.4222 763.173C58.2826 772.439 61.3126 781.655 64.4881 790.581ZM523.988 763.367C526.848 754.102 529.563 744.546 532.108 734.965L496.572 701.712C494.414 709.886 492.087 718.035 489.639 725.942L523.988 763.367ZM52.271 752.598L87.1043 716.75C84.7772 708.746 82.5471 700.475 80.4867 692.18L44.5141 723.759C46.9381 733.486 49.556 743.187 52.271 752.598ZM41.8477 712.699L78.2081 682.745C76.2447 674.377 74.4266 665.767 72.754 657.156L35.4482 682.696C37.4117 692.786 39.5448 702.876 41.8477 712.724L41.8477 712.699ZM543.962 683.133C545.901 673.091 547.719 662.759 549.319 652.475L511.237 631.398C509.855 640.178 508.328 648.982 506.656 657.544L543.962 683.133ZM551.064 640.808C552.543 630.476 553.852 619.901 554.991 609.374L516.061 594.676C515.091 603.65 513.976 612.673 512.716 621.478L551.064 640.833L551.064 640.808ZM22.213 584.999L61.4823 573.89C60.7551 564.843 60.1733 555.65 59.7612 546.555L20.201 552.982C20.6858 563.654 21.3646 574.424 22.213 585.023L22.213 584.999ZM520.57 509.154L560.275 509.057L560.275 508.79L560.275 508.693C560.275 498.142 560.106 487.47 559.766 476.992L520.133 481.577C520.424 490.527 520.57 499.646 520.57 508.693L520.57 509.178L520.57 509.154ZM58.9613 497.439C59.0825 488.295 59.3734 479.03 59.7855 469.934L20.2495 463.361C19.7405 474.009 19.4253 484.851 19.2799 495.547L58.9613 497.439ZM519.721 471.268L559.281 464.914C558.797 454.217 558.118 443.448 557.294 432.873L518.024 443.909C518.752 452.932 519.309 462.124 519.721 471.268ZM60.3187 459.675C60.852 450.555 61.5792 441.387 62.4034 432.412L23.3038 419.388C22.3099 429.914 21.4858 440.659 20.8555 451.307L60.3187 459.65L60.3187 459.675ZM517.127 433.746L556.251 420.94C555.282 410.341 554.094 399.717 552.761 389.312L514.17 406.799C515.309 415.652 516.303 424.699 517.127 433.746ZM63.4457 422.298C64.4153 413.348 65.5304 404.325 66.7909 395.521L28.467 376.117C26.9883 386.474 25.6551 397.049 24.54 407.551L63.4457 422.322L63.4457 422.298ZM512.813 396.806L551.185 377.621C549.731 367.264 548.058 356.835 546.24 346.696L508.619 370.466C510.171 379.125 511.576 387.978 512.837 396.806L512.813 396.806ZM68.2696 385.577C69.6513 376.845 71.1784 368.04 72.851 359.454L35.5694 333.793C33.6059 343.883 31.7879 354.191 30.188 364.451L68.2696 385.577ZM506.777 360.667L544.107 335.2C542.168 325.11 540.01 315.02 537.732 305.172L501.347 335.054C503.286 343.446 505.129 352.057 506.777 360.643L506.777 360.667ZM74.8144 349.777C76.584 341.312 78.5232 332.847 80.5836 324.552L44.6352 292.827C42.2112 302.553 39.9326 312.522 37.848 322.442L74.7902 349.752L74.8144 349.777ZM499.068 325.619L535.065 294.112C532.666 284.41 530.048 274.708 527.308 265.273L492.451 301.049C494.778 309.102 497.008 317.372 499.068 325.643L499.068 325.619ZM82.9834 315.287C85.1408 307.113 87.4921 298.963 89.9161 291.08L55.5919 253.583C52.7315 262.848 49.9924 272.38 47.4471 281.961L82.9834 315.262L82.9834 315.287ZM92.728 282.227C95.2733 274.442 97.9639 266.704 100.776 259.234L68.318 216.279C65.0456 225.035 61.8701 234.106 58.8886 243.226L92.7523 282.227L92.728 282.227ZM478.925 260.059L511.455 217.225C508.183 208.445 504.716 199.737 501.177 191.394L470.15 237.987C473.18 245.118 476.137 252.54 478.925 260.059ZM103.976 250.866C106.86 243.517 109.914 236.265 113.041 229.255L82.6683 181.158C79.008 189.356 75.4204 197.87 72.0268 206.48L103.951 250.866L103.976 250.866ZM466.659 230.007L497.081 182.056C493.42 173.857 489.566 165.756 485.639 157.995L456.89 209.463C460.26 216.085 463.532 222.997 466.659 230.007ZM453.06 202.066L481.155 149.336C477.131 141.744 472.913 134.322 468.647 127.24L442.37 183.22C446.006 189.259 449.594 195.614 453.036 202.09L453.06 202.066ZM130.616 194.183C134.155 187.877 137.815 181.692 141.548 175.822L116.047 118.605C111.684 125.469 107.393 132.697 103.248 140.095L130.616 194.183ZM145.814 169.273C149.62 163.574 153.571 158.019 157.547 152.78L134.785 91.6099C130.131 97.7464 125.501 104.247 121.041 110.941L145.814 169.273ZM422.275 153.362L445.109 92.289C440.455 86.1284 435.632 80.186 430.783 74.5831L410.058 138.252C414.203 143.03 418.324 148.099 422.299 153.362L422.275 153.362ZM162.08 146.959C166.128 141.89 170.321 136.99 174.539 132.431L154.711 67.7676C149.79 73.1036 144.869 78.8277 140.118 84.7701L162.104 146.935L162.08 146.959ZM405.331 132.988L425.257 68.4224C420.336 63.0379 415.245 57.8959 410.155 53.142L392.46 119.964C396.799 124.014 401.138 128.404 405.331 132.988ZM179.339 127.386C183.605 123.02 187.992 118.824 192.428 114.967L175.678 47.2967C170.491 51.8323 165.328 56.7317 160.334 61.8495L179.339 127.386ZM387.514 115.477L404.362 47.8787C399.198 43.3431 393.914 39.05 388.605 35.145L374.085 104.61C378.594 107.958 383.103 111.596 387.514 115.477ZM197.446 110.723C201.906 107.06 206.488 103.616 211.069 100.511L197.543 30.3184C192.186 33.9808 186.805 38.0071 181.569 42.3002L197.446 110.723ZM368.971 100.948L382.594 30.852C377.237 27.1653 371.758 23.7696 366.28 20.7378L355.057 92.3376C359.711 94.9086 364.389 97.8191 368.946 100.948L368.971 100.948ZM216.281 97.0915C220.887 94.1809 225.613 91.5372 230.292 89.1845L220.111 17.0268C214.608 19.7676 209.057 22.8965 203.652 26.3164L216.281 97.0915ZM349.797 89.524L360.099 17.4391C354.596 14.6498 348.972 12.1759 343.373 10.0657L335.543 83.2421C340.294 85.0369 345.094 87.1713 349.797 89.524ZM235.625 86.6377C240.352 84.5033 245.175 82.6357 249.951 81.0834L243.163 7.54324C237.54 9.36234 231.892 11.5695 226.341 14.0677L235.6 86.662L235.625 86.6377ZM330.162 81.3017L337.07 7.78577C331.471 5.91816 325.75 4.39012 320.078 3.17739L315.666 77.3724C320.514 78.3911 325.387 79.7251 330.162 81.3017ZM255.381 79.4341C260.18 78.1001 265.077 77.0086 269.925 76.2325L266.58 1.84339C260.883 2.74081 255.162 4.00205 249.539 5.57861L255.381 79.4098L255.381 79.4341ZM310.188 76.3537L313.654 1.98891C308.006 1.04298 302.237 0.436612 296.541 0.169812L295.547 74.8014C300.419 75.0197 305.34 75.5533 310.188 76.3537ZM275.403 75.4806C280.13 74.947 284.929 74.6559 289.705 74.6559L290.093 74.6559L290.093 3.04927e-05L289.705 3.05364e-05C284.13 3.11657e-05 278.506 0.315341 272.979 0.945963L275.403 75.4563L275.403 75.4806Z" fill="url(#paint0_linear_86_817)"></path> <path fill-rule="evenodd" clip-rule="evenodd" d="M323.375 62.4297C305.631 54.8137 287.329 50.9329 268.979 50.9329V50.9087C254.072 50.9087 239.115 53.4554 224.571 58.5247L228.547 99.0785C241.782 94.4701 255.405 92.1416 268.979 92.1416C285.681 92.1416 302.334 95.6828 318.478 102.62L323.375 62.4297ZM227.577 62.4782C241.176 58.0396 255.09 55.7839 268.979 55.7839C286.287 55.7839 303.546 59.2523 320.296 66.1164L316.563 96.847C301.025 90.5166 285.051 87.315 269.004 87.315C256.108 87.315 243.236 89.3766 230.631 93.4757L227.577 62.4782Z" fill="url(#paint1_linear_86_817)"></path> <path d="M138.324 172.522C162.952 138.541 190.465 114.917 220.159 102.328L215.336 62.1142C182.708 75.9394 152.432 101.916 125.356 139.293L138.324 172.522Z" fill="url(#paint2_linear_86_817)"></path> <path d="M420.699 150.959L407.003 183.145C383.151 147.224 356.172 121.442 326.816 106.525L332.537 66.723C364.825 83.1434 394.471 111.473 420.699 150.959Z" fill="url(#paint3_linear_86_817)"></path> <path fill-rule="evenodd" clip-rule="evenodd" d="M117.865 150.037L131.513 182.296C107.612 218.023 88.2437 261.754 73.8934 312.228L54.5497 292.8C70.3058 237.306 91.6131 189.281 117.841 150.013L117.865 150.037ZM117.453 156.877C93.0675 194.132 73.1177 239.149 58.0645 290.836L72.8511 305.68C86.8135 257.825 105.309 216.083 127.901 181.544L117.453 156.877Z" fill="url(#paint4_linear_86_817)"></path> <path d="M487.99 309.949L468.235 327.825C455.048 276.259 436.674 231.048 413.573 193.454L427.923 162.286C453.278 203.592 473.495 253.29 487.99 309.949Z" fill="url(#paint5_linear_86_817)"></path> <path fill-rule="evenodd" clip-rule="evenodd" d="M50.284 308.566L70.0156 326.563C56.7562 377.983 49.4114 433.162 48.1751 490.573L26.2619 488.9C27.6193 425.789 35.6913 365.104 50.284 308.542V308.566ZM51.496 315.066C38.1396 368.33 30.5524 425.183 28.9525 484.267L45.7026 485.528C47.2055 430.81 54.2109 378.129 66.5735 328.819L51.496 315.066Z" fill="url(#paint6_linear_86_817)"></path> <path fill-rule="evenodd" clip-rule="evenodd" d="M491.942 326.102H491.918L471.798 342.498C484.318 396.765 489.954 452.502 489.954 508.158H511.892C511.892 446.994 505.69 385.74 491.942 326.102ZM475.192 345.021L490.584 332.481C502.705 386.642 509.007 444.077 509.298 503.307H492.524C492.233 448.419 486.415 395.204 475.192 345.021Z" fill="url(#paint7_linear_86_817)"></path> <path d="M46.1385 689.704L66.258 673.26C54.1621 620.942 48.005 565.229 48.005 507.649V506.654H26.0675L26.0675 507.503C26.0675 570.905 32.8063 632.148 46.1385 689.704Z" fill="url(#paint8_linear_86_817)"></path> <path d="M511.698 525.864C510.365 588.975 502.317 649.684 487.773 706.27L468.041 688.298C481.276 636.853 488.597 581.65 489.785 524.239L511.698 525.864Z" fill="url(#paint9_linear_86_817)"></path> <path fill-rule="evenodd" clip-rule="evenodd" d="M69.8211 687.909C83.0321 739.45 101.455 784.612 124.58 822.159L110.23 853.35C84.8259 812.093 64.5852 762.444 50.0653 705.809L69.8211 687.885V687.909ZM68.6333 694.385L53.5316 708.089C67.4456 760.867 86.4257 807.387 109.987 846.51L120.944 822.644C99.1276 786.359 81.5292 743.258 68.6333 694.385Z" fill="url(#paint10_linear_86_817)"></path> <path fill-rule="evenodd" clip-rule="evenodd" d="M483.531 722.012L464.163 702.633C449.861 753.155 430.517 796.911 406.641 832.686L420.312 864.921C446.54 825.628 467.799 777.531 483.531 722.012ZM410.253 833.462C432.82 798.875 451.291 757.084 465.23 709.206L480.016 724.001C464.987 775.736 445.062 820.801 420.7 858.105L410.253 833.462Z" fill="url(#paint11_linear_86_817)"></path> <path d="M205.688 948.72L211.384 908.894C182.029 894.025 155.026 868.316 131.149 832.467L117.453 864.677C143.705 904.091 173.376 932.372 205.664 948.72H205.688Z" fill="url(#paint12_linear_86_817)"></path> <path d="M412.822 875.713C385.77 913.138 355.518 939.188 322.89 953.086L318.042 912.871C347.712 900.235 375.225 876.562 399.829 842.509L412.822 875.713Z" fill="url(#paint13_linear_86_817)"></path> <path d="M313.655 956.675C299.014 961.793 283.96 964.388 268.956 964.388L268.98 964.413C250.727 964.413 232.498 960.58 214.851 953.013L219.724 912.799C235.771 919.663 252.351 923.156 268.98 923.156C282.651 923.156 296.323 920.803 309.655 916.146L313.655 956.675Z" fill="url(#paint14_linear_86_817)"></path> <path d="M245.031 897.362C359.202 897.362 452.067 722.729 452.067 508.075C452.067 293.421 359.178 118.787 245.031 118.787C130.883 118.787 37.994 293.421 37.994 508.075C37.9941 722.729 130.883 897.362 245.031 897.362ZM245.031 126.064C357.069 126.064 448.213 297.423 448.213 508.075C448.213 718.727 357.069 890.086 245.031 890.086C132.992 890.086 41.8483 718.727 41.8483 508.075C41.8483 297.423 132.992 126.064 245.031 126.064Z" fill="url(#paint15_linear_86_817)"></path> <path d="M218.317 802.721C219.384 802.721 220.257 801.096 220.257 799.083C220.257 797.069 219.384 795.444 218.317 795.444C217.251 795.444 216.378 797.069 216.378 799.083C216.378 801.096 217.251 802.721 218.317 802.721ZM211.264 798.816C211.312 796.803 210.512 795.08 209.421 794.983C208.355 794.862 207.458 796.414 207.385 798.403C207.337 800.417 208.136 802.139 209.203 802.236C209.203 802.236 209.276 802.236 209.324 802.236C210.342 802.236 211.191 800.732 211.264 798.791L211.264 798.816ZM227.432 802.211C228.498 802.09 229.323 800.368 229.25 798.355C229.201 796.366 228.28 794.838 227.214 794.935C226.147 795.056 225.323 796.778 225.396 798.791C225.468 800.732 226.317 802.211 227.335 802.211L227.432 802.211ZM202.295 797.579C202.416 795.59 201.64 793.795 200.598 793.552C199.531 793.334 198.562 794.765 198.465 796.754C198.343 798.743 199.095 800.562 200.161 800.78C200.161 800.78 200.307 800.78 200.38 800.78C201.349 800.78 202.198 799.422 202.295 797.554L202.295 797.579ZM236.522 800.708C237.588 800.465 238.34 798.67 238.219 796.681C238.098 794.668 237.128 793.261 236.061 793.48C234.995 793.722 234.243 795.517 234.365 797.53C234.486 799.374 235.31 800.732 236.279 800.732C236.279 800.732 236.425 800.732 236.522 800.732L236.522 800.708ZM193.374 795.372C193.544 793.383 192.865 791.515 191.799 791.151C190.732 790.812 189.738 792.146 189.544 794.11C189.374 796.099 190.077 797.991 191.12 798.331C191.12 798.331 191.338 798.379 191.459 798.379C192.38 798.379 193.18 797.142 193.35 795.372L193.374 795.372ZM245.539 798.234C246.606 797.87 247.285 795.978 247.115 794.013C246.921 792.024 245.903 790.715 244.861 791.054C243.818 791.394 243.115 793.286 243.309 795.275C243.479 797.045 244.279 798.282 245.224 798.282C245.224 798.282 245.442 798.282 245.564 798.234L245.539 798.234ZM184.526 792.194C184.769 790.23 184.114 788.265 183.072 787.804C182.03 787.343 180.987 788.556 180.745 790.521C180.503 792.461 181.157 794.426 182.175 794.886C182.321 794.959 182.466 794.983 182.636 794.983C183.508 794.983 184.308 793.868 184.526 792.194ZM254.46 794.741C255.502 794.28 256.132 792.315 255.89 790.351C255.647 788.41 254.605 787.198 253.563 787.659C252.521 788.119 251.89 790.084 252.133 792.049C252.351 793.722 253.151 794.838 254.023 794.838C254.169 794.838 254.314 794.838 254.484 794.741L254.46 794.741ZM175.8 788.022C176.091 786.106 175.509 784.069 174.491 783.487C173.449 782.929 172.382 784.02 172.067 785.937C171.752 787.877 172.358 789.89 173.376 790.472C173.546 790.569 173.739 790.618 173.933 790.618C174.758 790.618 175.533 789.599 175.8 788.022ZM263.259 790.302C264.277 789.72 264.859 787.683 264.544 785.767C264.229 783.851 263.162 782.759 262.12 783.317C261.102 783.899 260.52 785.936 260.835 787.853C261.077 789.429 261.853 790.448 262.677 790.448C262.871 790.448 263.041 790.399 263.235 790.302L263.259 790.302ZM167.195 782.905C167.558 781.013 167.049 778.927 166.031 778.248C165.037 777.569 163.922 778.539 163.559 780.406C163.195 782.298 163.704 784.384 164.722 785.088C164.94 785.233 165.158 785.306 165.377 785.306C166.152 785.306 166.904 784.384 167.195 782.905ZM271.889 784.893C272.907 784.19 273.416 782.08 273.028 780.212C272.664 778.32 271.549 777.35 270.555 778.054C269.561 778.733 269.028 780.819 269.392 782.711C269.683 784.19 270.434 785.112 271.234 785.112C271.452 785.112 271.67 785.039 271.889 784.893ZM158.759 776.841C159.195 774.998 158.735 772.863 157.765 772.063C156.796 771.262 155.656 772.111 155.22 773.955C154.784 775.798 155.244 777.932 156.238 778.733C156.48 778.951 156.747 779.048 156.989 779.048C157.741 779.048 158.468 778.224 158.759 776.841ZM280.324 778.539C281.294 777.738 281.754 775.58 281.342 773.736C280.906 771.893 279.767 771.044 278.797 771.845C277.827 772.645 277.367 774.804 277.803 776.647C278.118 778.005 278.845 778.83 279.573 778.83C279.839 778.83 280.082 778.733 280.348 778.539L280.324 778.539ZM150.542 769.88C151.026 768.061 150.638 765.878 149.669 764.98C148.723 764.083 147.56 764.811 147.075 766.606C146.59 768.4 146.978 770.583 147.924 771.481C148.214 771.747 148.505 771.869 148.796 771.869C149.499 771.869 150.178 771.141 150.542 769.88ZM288.542 771.262C289.487 770.365 289.875 768.182 289.414 766.387C288.929 764.592 287.766 763.865 286.821 764.762C285.875 765.684 285.487 767.867 285.972 769.662C286.311 770.923 286.99 771.65 287.693 771.65C287.984 771.65 288.275 771.529 288.566 771.262L288.542 771.262ZM142.542 761.997C143.075 760.275 142.76 758.044 141.839 757.025C140.918 756.03 139.73 756.613 139.197 758.359C138.664 760.105 138.979 762.337 139.9 763.331C140.191 763.671 140.53 763.816 140.87 763.816C141.548 763.816 142.179 763.161 142.542 761.997ZM296.541 763.113C297.462 762.094 297.777 759.863 297.244 758.141C296.711 756.394 295.523 755.812 294.602 756.807C293.681 757.825 293.365 760.057 293.899 761.779C294.262 762.943 294.917 763.598 295.571 763.598C295.886 763.598 296.226 763.452 296.541 763.113ZM134.81 753.29C135.391 751.592 135.149 749.336 134.252 748.245C133.355 747.129 132.167 747.59 131.586 749.288C130.98 750.961 131.246 753.217 132.119 754.308C132.458 754.721 132.822 754.915 133.185 754.915C133.816 754.915 134.422 754.333 134.81 753.29ZM304.274 754.09C305.17 752.974 305.413 750.719 304.807 749.045C304.225 747.372 303.037 746.911 302.116 748.026C301.219 749.118 300.977 751.374 301.583 753.071C301.946 754.114 302.577 754.696 303.207 754.696C303.571 754.696 303.934 754.502 304.274 754.09ZM127.368 743.733C127.998 742.133 127.828 739.853 126.98 738.64C126.107 737.451 124.92 737.791 124.265 739.392C123.611 740.993 123.804 743.273 124.677 744.485C125.016 744.97 125.429 745.189 125.816 745.189C126.398 745.189 126.98 744.704 127.368 743.733ZM311.715 744.243C312.588 743.03 312.758 740.75 312.103 739.149C311.449 737.548 310.237 737.209 309.388 738.422C308.54 739.61 308.346 741.89 308.976 743.515C309.364 744.461 309.946 744.97 310.528 744.97C310.915 744.97 311.327 744.728 311.667 744.243L311.715 744.243ZM120.241 733.401C120.92 731.849 120.823 729.569 119.999 728.283C119.175 726.973 117.963 727.167 117.284 728.72C116.605 730.272 116.702 732.552 117.526 733.837C117.89 734.42 118.35 734.711 118.787 734.711C119.344 734.711 119.878 734.25 120.265 733.401L120.241 733.401ZM318.866 733.595C319.69 732.309 319.787 730.005 319.109 728.477C318.43 726.949 317.194 726.731 316.369 728.041C315.545 729.326 315.448 731.63 316.127 733.158C316.515 734.007 317.048 734.468 317.606 734.468C318.042 734.468 318.478 734.177 318.866 733.595ZM113.43 722.316C114.157 720.837 114.133 718.533 113.357 717.174C112.581 715.792 111.369 715.865 110.618 717.32C109.891 718.775 109.915 721.079 110.69 722.462C111.054 723.117 111.539 723.456 112.024 723.456C112.533 723.456 113.066 723.068 113.43 722.316ZM325.654 722.195C326.429 720.813 326.478 718.508 325.726 717.053C324.999 715.598 323.763 715.525 322.987 716.908C322.211 718.29 322.163 720.594 322.914 722.05C323.278 722.802 323.811 723.19 324.32 723.19C324.805 723.19 325.266 722.874 325.654 722.195ZM106.982 710.504C107.757 709.122 107.806 706.818 107.054 705.362C106.327 703.883 105.115 703.834 104.315 705.217C103.54 706.599 103.515 708.904 104.243 710.359C104.63 711.111 105.139 711.499 105.648 711.499C106.133 711.499 106.594 711.159 106.982 710.504ZM332.101 710.092C332.829 708.613 332.804 706.308 332.029 704.95C331.253 703.568 330.017 703.64 329.29 705.096C328.562 706.551 328.587 708.855 329.362 710.238C329.726 710.892 330.211 711.232 330.695 711.232C331.205 711.232 331.738 710.844 332.101 710.092ZM100.897 698.013C101.722 696.728 101.818 694.424 101.14 692.896C100.437 691.343 99.2247 691.149 98.4006 692.459C97.5764 693.744 97.4795 696.049 98.1582 697.577C98.546 698.426 99.0793 698.862 99.6369 698.862C100.073 698.862 100.509 698.595 100.873 698.013L100.897 698.013ZM338.161 697.286C338.84 695.758 338.743 693.453 337.919 692.168C337.095 690.858 335.883 691.076 335.204 692.604C334.525 694.157 334.622 696.437 335.447 697.746C335.81 698.304 336.247 698.571 336.683 698.571C337.24 698.571 337.774 698.135 338.161 697.286ZM95.2251 684.892C96.0978 683.679 96.2674 681.423 95.613 679.798C94.9827 678.197 93.7707 677.858 92.9223 679.07C92.0496 680.283 91.8799 682.563 92.5344 684.164C92.9223 685.11 93.504 685.619 94.0858 685.619C94.4979 685.619 94.91 685.377 95.2494 684.892L95.2251 684.892ZM343.809 683.849C344.44 682.248 344.27 679.968 343.422 678.755C342.573 677.567 341.361 677.882 340.707 679.483C340.052 681.108 340.246 683.388 341.119 684.6C341.458 685.086 341.87 685.304 342.258 685.304C342.84 685.304 343.422 684.795 343.809 683.849ZM89.9407 671.188C90.8376 670.072 91.08 667.816 90.474 666.143C89.8923 664.469 88.6802 664.008 87.7833 665.124C86.8865 666.215 86.644 668.471 87.2501 670.169C87.6137 671.212 88.2197 671.794 88.8742 671.794C89.2378 671.794 89.6014 671.6 89.9407 671.188ZM349.045 669.805C349.627 668.132 349.385 665.876 348.488 664.76C347.591 663.669 346.403 664.13 345.797 665.803C345.215 667.477 345.458 669.732 346.355 670.848C346.67 671.26 347.058 671.454 347.421 671.454C348.052 671.454 348.682 670.872 349.045 669.805ZM85.1169 656.926C86.038 655.907 86.3532 653.7 85.8199 651.954C85.2866 650.207 84.0988 649.625 83.1777 650.644C82.2565 651.638 81.9414 653.87 82.4747 655.616C82.8141 656.78 83.4928 657.411 84.1473 657.411C84.4624 657.411 84.8018 657.265 85.1169 656.926ZM353.845 655.228C354.378 653.482 354.063 651.25 353.142 650.256C352.221 649.261 351.033 649.843 350.5 651.59C349.967 653.312 350.282 655.543 351.203 656.562C351.518 656.877 351.857 657.047 352.172 657.047C352.851 657.047 353.506 656.392 353.845 655.228ZM80.7294 642.179C81.6748 641.257 82.0626 639.074 81.5778 637.28C81.093 635.485 79.9295 634.781 78.9599 635.679C78.0145 636.576 77.6266 638.783 78.1114 640.578C78.4508 641.839 79.1296 642.567 79.8325 642.567C80.1234 642.567 80.4143 642.446 80.7052 642.179L80.7294 642.179ZM358.184 640.142C358.669 638.347 358.281 636.164 357.311 635.242C356.366 634.345 355.202 635.072 354.718 636.867C354.233 638.662 354.621 640.845 355.566 641.767C355.857 642.009 356.148 642.13 356.439 642.13C357.142 642.13 357.82 641.403 358.16 640.142L358.184 640.142ZM76.8025 626.971C77.7721 626.171 78.2326 624.037 77.7963 622.169C77.36 620.35 76.245 619.501 75.2511 620.301C74.2815 621.102 73.8209 623.236 74.233 625.079C74.5481 626.462 75.2753 627.262 76.0026 627.262C76.2692 627.262 76.5116 627.165 76.7782 626.971L76.8025 626.971ZM362.038 624.594C362.475 622.751 362.014 620.617 361.044 619.816C360.075 619.016 358.935 619.865 358.499 621.708C358.063 623.551 358.523 625.686 359.517 626.486C359.784 626.704 360.026 626.802 360.293 626.802C361.044 626.802 361.747 625.977 362.062 624.594L362.038 624.594ZM73.3604 611.351C74.3542 610.672 74.8875 608.586 74.4996 606.694C74.136 604.803 73.021 603.832 72.0029 604.536C71.009 605.215 70.5 607.325 70.8636 609.217C71.1545 610.672 71.9059 611.594 72.6816 611.594C72.8998 611.594 73.1422 611.521 73.3604 611.351ZM365.408 608.659C365.771 606.767 365.262 604.681 364.244 603.978C363.25 603.299 362.135 604.269 361.772 606.161C361.408 608.053 361.917 610.139 362.935 610.818C363.153 610.963 363.371 611.036 363.59 611.036C364.365 611.036 365.117 610.139 365.408 608.659ZM70.3788 595.392C71.4211 594.81 72.0029 592.772 71.6878 590.856C71.3727 588.916 70.3061 587.824 69.2637 588.406C68.2457 588.989 67.6639 591.026 67.979 592.942C68.2214 594.519 68.9971 595.537 69.8213 595.537C70.0152 595.537 70.1849 595.489 70.3788 595.392ZM368.268 592.36C368.583 590.42 367.977 588.406 366.959 587.824C365.941 587.242 364.85 588.334 364.535 590.274C364.244 592.19 364.826 594.228 365.844 594.785C366.014 594.907 366.208 594.955 366.401 594.955C367.25 594.955 368.001 593.936 368.268 592.36ZM67.9063 579.093C68.9486 578.632 69.6031 576.667 69.3607 574.727C69.094 572.762 68.0517 571.549 67.0336 572.01C65.9913 572.495 65.3368 574.46 65.6034 576.4C65.7974 578.074 66.5973 579.214 67.4699 579.214C67.6154 579.214 67.7851 579.165 67.9305 579.093L67.9063 579.093ZM370.595 575.794C370.837 573.829 370.207 571.889 369.165 571.428C368.123 570.967 367.08 572.18 366.838 574.12C366.595 576.085 367.25 578.025 368.268 578.51C368.413 578.559 368.583 578.607 368.729 578.607C369.601 578.607 370.401 577.468 370.619 575.794L370.595 575.794ZM65.9671 562.575C67.0094 562.236 67.7124 560.344 67.5184 558.355C67.3488 556.39 66.3307 555.056 65.2883 555.42C64.2218 555.76 63.543 557.651 63.7127 559.616C63.8824 561.387 64.6823 562.624 65.6034 562.624C65.6034 562.624 65.8458 562.624 65.9428 562.575L65.9671 562.575ZM372.437 559.01C372.607 557.045 371.904 555.153 370.862 554.814C369.795 554.45 368.801 555.784 368.607 557.748C368.438 559.737 369.116 561.629 370.183 561.969C370.183 561.969 370.401 562.017 370.522 562.017C371.443 562.017 372.268 560.78 372.413 559.01L372.437 559.01ZM64.5369 545.864C65.6035 545.645 66.3791 543.826 66.2337 541.837C66.1125 539.824 65.1429 538.417 64.0763 538.636C63.0097 538.878 62.2583 540.673 62.3795 542.686C62.5007 544.53 63.3249 545.888 64.2945 545.888C64.2945 545.888 64.4399 545.888 64.5126 545.888L64.5369 545.864ZM373.746 542.056C373.867 540.067 373.092 538.248 372.049 538.029C370.983 537.787 370.013 539.218 369.916 541.231C369.795 543.22 370.571 545.015 371.613 545.257C371.613 545.257 371.759 545.257 371.831 545.257C372.801 545.257 373.649 543.899 373.746 542.031L373.746 542.056ZM63.64 529.031C64.7065 528.91 65.5307 527.188 65.458 525.199C65.4095 523.186 64.4884 521.658 63.4218 521.779C62.3552 521.876 61.5311 523.622 61.6038 525.611C61.6765 527.551 62.5249 529.031 63.543 529.031L63.64 529.031ZM374.546 524.98C374.595 522.991 373.795 521.269 372.704 521.148C371.637 521.027 370.74 522.579 370.668 524.568C370.595 526.581 371.419 528.303 372.486 528.425L372.607 528.425C373.625 528.425 374.473 526.921 374.546 524.98ZM63.2764 512.125C64.343 512.125 65.2156 510.476 65.1913 508.487C65.1913 506.474 64.3187 504.849 63.2521 504.849C62.1855 504.849 61.3129 506.474 61.3371 508.487C61.3371 510.5 62.2098 512.125 63.2521 512.125L63.2764 512.125ZM374.789 507.881C374.789 505.868 373.916 504.243 372.849 504.243C371.783 504.243 370.91 505.868 370.91 507.881C370.91 509.87 371.783 511.495 372.849 511.495C373.916 511.495 374.789 509.87 374.764 507.881L374.789 507.881ZM65.4338 491.776C65.5065 489.763 64.6823 488.041 63.6157 487.944C62.5492 487.822 61.628 489.35 61.5796 491.363C61.5068 493.377 62.331 495.099 63.3976 495.196L63.5188 495.196C64.5369 495.196 65.3853 493.716 65.4338 491.776ZM372.704 494.589C373.77 494.468 374.595 492.746 374.522 490.733C374.449 488.744 373.552 487.216 372.462 487.313C371.395 487.434 370.571 489.156 370.644 491.169C370.716 493.11 371.565 494.589 372.583 494.589L372.704 494.589ZM66.1852 475.137C66.3064 473.124 65.555 471.329 64.4884 471.087C63.4218 470.868 62.4522 472.299 62.3552 474.312C62.234 476.301 62.9855 478.096 64.052 478.339C64.052 478.339 64.1975 478.363 64.2702 478.363C65.2399 478.363 66.0882 476.98 66.1852 475.137ZM372.049 477.708C373.116 477.49 373.867 475.671 373.746 473.682C373.625 471.693 372.655 470.262 371.589 470.48C370.522 470.723 369.771 472.518 369.892 474.531C370.013 476.374 370.837 477.732 371.807 477.732C371.807 477.732 371.952 477.732 372.049 477.732L372.049 477.708ZM67.4699 458.595C67.6396 456.606 66.9367 454.715 65.8943 454.375C64.8278 454.035 63.8339 455.369 63.64 457.334C63.4703 459.323 64.1733 461.215 65.2156 461.554C65.2156 461.554 65.458 461.603 65.555 461.603C66.4761 461.603 67.3003 460.366 67.4699 458.595ZM370.862 460.948C371.928 460.584 372.631 458.717 372.437 456.728C372.268 454.739 371.25 453.429 370.207 453.769C369.141 454.132 368.438 456 368.632 457.989C368.801 459.76 369.601 460.997 370.522 460.997C370.522 460.997 370.765 460.972 370.862 460.948ZM69.2637 442.223C69.5061 440.259 68.8516 438.294 67.8093 437.833C66.767 437.397 65.7247 438.61 65.4823 440.55C65.2399 442.515 65.8943 444.455 66.9367 444.94C67.0821 444.988 67.2276 445.037 67.373 445.037C68.2456 445.037 69.0456 443.897 69.2637 442.223ZM369.165 444.334C370.207 443.873 370.837 441.908 370.595 439.943C370.353 438.003 369.31 436.79 368.268 437.251C367.226 437.712 366.571 439.677 366.814 441.641C367.032 443.291 367.807 444.431 368.704 444.431C368.85 444.431 368.995 444.431 369.165 444.334ZM71.5423 426.07C71.8575 424.154 71.2757 422.116 70.2333 421.558C69.2152 420.976 68.1244 422.068 67.8335 423.984C67.5184 425.924 68.1002 427.937 69.1183 428.52C69.3122 428.617 69.4819 428.665 69.6758 428.665C70.5242 428.665 71.2999 427.646 71.5423 426.07ZM366.935 427.937C367.977 427.355 368.559 425.318 368.244 423.402C367.929 421.486 366.862 420.37 365.82 420.952C364.802 421.534 364.22 423.572 364.535 425.488C364.777 427.064 365.553 428.083 366.377 428.083C366.547 428.083 366.741 428.034 366.935 427.937ZM74.33 410.183C74.6936 408.291 74.1845 406.205 73.1907 405.526C72.1726 404.823 71.0817 405.817 70.6939 407.685C70.3303 409.577 70.8636 411.663 71.8574 412.342C72.0756 412.511 72.318 412.584 72.5362 412.584C73.3118 412.584 74.0633 411.663 74.3542 410.183L74.33 410.183ZM364.196 411.808C365.189 411.105 365.723 409.019 365.335 407.151C364.971 405.259 363.856 404.289 362.862 404.968C361.844 405.647 361.335 407.758 361.699 409.625C361.99 411.105 362.741 412.026 363.517 412.026C363.735 412.026 363.977 411.954 364.196 411.808ZM77.6024 394.612C78.0387 392.768 77.5781 390.634 76.5843 389.833C75.6147 389.033 74.4754 389.882 74.0391 391.749C73.627 393.593 74.0876 395.727 75.0572 396.528C75.2996 396.722 75.5662 396.819 75.8086 396.819C76.5601 396.819 77.2873 395.994 77.5781 394.612L77.6024 394.612ZM360.972 396.043C361.941 395.242 362.402 393.083 361.99 391.264C361.553 389.397 360.438 388.572 359.444 389.372C358.475 390.173 358.014 392.307 358.451 394.151C358.766 395.533 359.493 396.334 360.22 396.334C360.487 396.334 360.729 396.237 360.996 396.043L360.972 396.043ZM81.3839 379.452C81.8687 377.657 81.4808 375.475 80.5355 374.577C79.5901 373.68 78.4266 374.383 77.9418 376.178C77.457 377.973 77.8448 380.18 78.8144 381.077C79.1053 381.344 79.3962 381.465 79.6871 381.465C80.39 381.465 81.0687 380.714 81.4323 379.452L81.3839 379.452ZM357.263 380.641C358.208 379.743 358.596 377.56 358.111 375.766C357.626 373.971 356.463 373.243 355.518 374.141C354.572 375.062 354.184 377.245 354.669 379.04C355.009 380.301 355.687 381.029 356.39 381.029C356.681 381.029 356.972 380.908 357.263 380.641ZM85.6017 364.73C86.135 362.983 85.8199 360.776 84.8987 359.758C83.9776 358.763 82.7898 359.345 82.2565 361.092C81.7233 362.838 82.0384 365.069 82.9595 366.064C83.2746 366.379 83.5898 366.549 83.9291 366.549C84.6079 366.549 85.2381 365.894 85.6017 364.73ZM353.094 365.676C354.015 364.681 354.33 362.45 353.796 360.703C353.263 358.957 352.075 358.375 351.154 359.369C350.233 360.388 349.894 362.62 350.451 364.366C350.815 365.53 351.469 366.161 352.124 366.161C352.439 366.161 352.778 366.015 353.094 365.676ZM90.2801 350.492C90.8618 348.819 90.6194 346.563 89.7226 345.447C88.8257 344.356 87.6379 344.817 87.0319 346.49C86.4501 348.164 86.6925 350.444 87.5894 351.535C87.9288 351.948 88.2924 352.142 88.656 352.142C89.2862 352.142 89.8922 351.559 90.2801 350.492ZM348.439 351.196C349.336 350.08 349.579 347.824 348.997 346.151C348.415 344.477 347.227 344.016 346.306 345.132C345.409 346.223 345.167 348.479 345.773 350.153C346.137 351.22 346.743 351.802 347.397 351.802C347.761 351.802 348.124 351.608 348.464 351.196L348.439 351.196ZM95.3705 336.788C96.025 335.188 95.8311 332.908 94.9827 331.695C94.1343 330.506 92.9223 330.846 92.292 332.447C91.6375 334.072 91.8314 336.352 92.6798 337.54C93.0192 338.025 93.4313 338.268 93.8434 338.268C94.4252 338.268 95.0069 337.759 95.3948 336.788L95.3705 336.788ZM343.373 337.225C344.222 336.036 344.415 333.757 343.785 332.131C343.131 330.531 341.919 330.191 341.07 331.404C340.198 332.592 340.028 334.872 340.682 336.497C341.07 337.443 341.652 337.953 342.234 337.953C342.646 337.953 343.058 337.71 343.397 337.225L343.373 337.225ZM100.897 323.691C101.576 322.139 101.479 319.834 100.655 318.549C99.8308 317.263 98.6187 317.457 97.94 319.01C97.2371 320.538 97.3582 322.842 98.1824 324.127C98.546 324.71 99.0066 324.976 99.4429 324.976C100 324.976 100.534 324.54 100.922 323.691L100.897 323.691ZM337.895 323.836C338.719 322.551 338.816 320.247 338.137 318.719C337.459 317.166 336.222 316.972 335.422 318.258C334.598 319.568 334.501 321.847 335.18 323.4C335.568 324.249 336.125 324.685 336.659 324.685C337.095 324.685 337.555 324.418 337.919 323.836L337.895 323.836ZM106.812 311.175C107.563 309.72 107.515 307.416 106.739 306.033C105.964 304.651 104.752 304.724 104 306.179C103.273 307.658 103.297 309.963 104.097 311.321C104.461 312 104.945 312.315 105.406 312.315C105.915 312.315 106.448 311.927 106.812 311.175ZM332.004 311.054C332.78 309.696 332.829 307.392 332.077 305.912C331.35 304.457 330.114 304.384 329.338 305.767C328.562 307.149 328.514 309.453 329.265 310.909C329.653 311.661 330.162 312.049 330.671 312.049C331.156 312.049 331.617 311.733 332.004 311.054ZM113.114 299.339C113.89 297.957 113.939 295.652 113.187 294.197C112.46 292.742 111.224 292.669 110.448 294.052C109.672 295.434 109.624 297.738 110.375 299.194C110.763 299.97 111.272 300.334 111.781 300.334C112.266 300.334 112.727 300.018 113.114 299.339ZM325.726 298.951C326.453 297.472 326.429 295.192 325.653 293.809C324.878 292.427 323.666 292.475 322.914 293.955C322.187 295.41 322.211 297.714 322.987 299.097C323.351 299.751 323.835 300.091 324.32 300.091C324.829 300.091 325.338 299.703 325.726 298.951ZM119.732 288.206C120.556 286.921 120.653 284.617 119.974 283.089C119.296 281.536 118.059 281.342 117.26 282.652C116.435 283.937 116.338 286.242 117.017 287.77C117.381 288.619 117.938 289.079 118.496 289.079C118.932 289.079 119.393 288.788 119.756 288.206L119.732 288.206ZM319.084 287.527C319.763 285.999 319.666 283.695 318.842 282.409C318.018 281.1 316.806 281.318 316.127 282.846C315.448 284.374 315.545 286.678 316.369 287.964C316.733 288.546 317.194 288.837 317.63 288.837C318.187 288.837 318.721 288.376 319.109 287.527L319.084 287.527ZM126.689 277.825C127.562 276.613 127.731 274.333 127.077 272.732C126.447 271.107 125.235 270.791 124.362 272.004C123.514 273.193 123.32 275.473 123.974 277.073C124.362 278.044 124.944 278.553 125.525 278.553C125.938 278.553 126.35 278.31 126.689 277.825ZM312.079 276.855C312.733 275.23 312.539 272.95 311.691 271.762C310.818 270.549 309.606 270.888 308.976 272.489C308.322 274.114 308.516 276.394 309.364 277.583C309.703 278.068 310.115 278.31 310.528 278.31C311.109 278.31 311.691 277.801 312.079 276.855ZM133.937 268.196C134.834 267.08 135.076 264.825 134.47 263.151C133.888 261.478 132.701 261.017 131.779 262.132C130.883 263.248 130.664 265.504 131.246 267.177C131.61 268.22 132.24 268.803 132.87 268.803C133.234 268.803 133.597 268.608 133.937 268.196ZM304.783 266.935C305.364 265.261 305.122 263.006 304.225 261.914C303.328 260.798 302.14 261.259 301.534 262.933C300.953 264.606 301.195 266.862 302.092 267.978C302.407 268.39 302.795 268.584 303.158 268.584C303.789 268.584 304.419 268.002 304.783 266.935ZM141.5 259.392C142.421 258.373 142.736 256.142 142.203 254.419C141.67 252.673 140.482 252.091 139.561 253.11C138.639 254.104 138.324 256.336 138.858 258.082C139.221 259.222 139.851 259.877 140.53 259.877C140.845 259.877 141.185 259.731 141.5 259.392ZM297.195 257.839C297.729 256.117 297.413 253.886 296.492 252.867C295.571 251.873 294.383 252.455 293.85 254.201C293.317 255.923 293.632 258.155 294.553 259.173C294.868 259.513 295.208 259.658 295.523 259.658C296.177 259.658 296.832 259.004 297.195 257.839ZM149.305 251.412C150.251 250.514 150.638 248.332 150.154 246.512C149.669 244.742 148.505 244.014 147.536 244.936C146.59 245.833 146.202 248.016 146.687 249.811C147.027 251.072 147.705 251.8 148.408 251.8C148.699 251.8 148.99 251.679 149.281 251.412L149.305 251.412ZM289.317 249.593C289.802 247.798 289.414 245.615 288.445 244.718C287.499 243.796 286.336 244.524 285.851 246.318C285.366 248.113 285.754 250.296 286.699 251.218C286.99 251.46 287.281 251.606 287.572 251.606C288.275 251.606 288.954 250.854 289.317 249.593ZM157.329 244.305C158.298 243.505 158.759 241.37 158.347 239.527C157.911 237.684 156.771 236.835 155.802 237.635C154.832 238.436 154.371 240.594 154.784 242.438C155.099 243.796 155.826 244.621 156.553 244.621C156.82 244.621 157.086 244.524 157.329 244.305ZM281.197 242.219C281.633 240.376 281.172 238.242 280.203 237.441C279.233 236.641 278.07 237.49 277.658 239.333C277.221 241.176 277.682 243.311 278.676 244.111C278.942 244.305 279.185 244.402 279.451 244.402C280.203 244.402 280.906 243.578 281.221 242.219L281.197 242.219ZM165.57 238.12C166.589 237.417 167.098 235.331 166.71 233.439C166.346 231.547 165.231 230.577 164.237 231.281C163.219 231.96 162.71 234.07 163.098 235.937C163.389 237.417 164.14 238.339 164.916 238.339C165.134 238.339 165.352 238.266 165.57 238.12ZM272.882 235.743C273.246 233.851 272.737 231.766 271.719 231.086C270.725 230.383 269.61 231.353 269.246 233.245C268.883 235.137 269.392 237.223 270.386 237.926C270.604 238.072 270.822 238.145 271.064 238.145C271.84 238.145 272.591 237.223 272.882 235.743ZM174.006 232.809C175.024 232.226 175.606 230.213 175.291 228.273C174.976 226.357 173.909 225.265 172.891 225.847C171.849 226.43 171.291 228.467 171.606 230.383C171.849 231.96 172.624 232.978 173.449 232.978C173.642 232.978 173.812 232.93 174.006 232.809ZM264.35 230.189C264.665 228.273 264.083 226.236 263.041 225.678C262.023 225.096 260.932 226.187 260.641 228.103C260.326 230.019 260.908 232.057 261.926 232.639C262.12 232.736 262.289 232.784 262.483 232.784C263.332 232.784 264.083 231.766 264.35 230.189ZM182.587 228.467C183.63 227.982 184.26 226.017 184.017 224.077C183.775 222.112 182.733 220.9 181.69 221.385C180.648 221.845 180.018 223.81 180.26 225.75C180.454 227.424 181.254 228.564 182.151 228.564C182.296 228.564 182.442 228.515 182.611 228.467L182.587 228.467ZM255.696 225.605C255.938 223.665 255.308 221.7 254.266 221.239C253.223 220.778 252.181 221.967 251.939 223.931C251.696 225.896 252.327 227.861 253.393 228.321C253.539 228.37 253.684 228.418 253.829 228.418C254.702 228.418 255.502 227.278 255.72 225.605L255.696 225.605ZM191.289 225.047C192.356 224.683 193.035 222.816 192.841 220.827C192.671 218.838 191.653 217.528 190.611 217.892C189.568 218.231 188.865 220.123 189.059 222.112C189.229 223.859 190.029 225.096 190.974 225.096C190.974 225.096 191.192 225.096 191.314 225.047L191.289 225.047ZM246.921 221.991C247.091 220.002 246.412 218.11 245.345 217.771C244.279 217.431 243.285 218.741 243.091 220.73C242.921 222.719 243.6 224.586 244.667 224.95C244.667 224.95 244.909 224.999 245.006 224.999C245.927 224.999 246.751 223.762 246.921 221.991ZM200.089 222.597C201.155 222.355 201.907 220.56 201.785 218.571C201.664 216.558 200.695 215.151 199.628 215.369C198.562 215.612 197.81 217.407 197.931 219.42C198.052 221.263 198.877 222.622 199.846 222.622C199.846 222.622 199.992 222.622 200.089 222.622L200.089 222.597ZM238.025 219.347C238.146 217.334 237.37 215.539 236.328 215.297C235.261 215.078 234.292 216.509 234.195 218.498C234.074 220.487 234.825 222.306 235.892 222.525C235.892 222.525 236.037 222.525 236.134 222.525C237.104 222.525 237.928 221.166 238.049 219.323L238.025 219.347ZM208.936 221.118C210.003 220.997 210.803 219.274 210.754 217.286C210.682 215.272 209.761 213.744 208.694 213.866C207.627 213.987 206.803 215.709 206.876 217.722C206.949 219.638 207.797 221.142 208.815 221.142C208.815 221.142 208.888 221.142 208.936 221.142L208.936 221.118ZM229.08 217.674C229.129 215.66 228.329 213.938 227.238 213.817C226.171 213.72 225.274 215.248 225.202 217.237C225.129 219.25 225.953 220.972 227.02 221.094L227.141 221.094C228.159 221.094 229.007 219.59 229.08 217.674ZM217.833 220.608C217.833 220.608 217.93 220.608 217.978 220.584C217.978 220.584 218.075 220.608 218.123 220.608C219.19 220.608 220.063 218.983 220.063 216.97C220.063 214.957 219.19 213.332 218.123 213.332C218.123 213.332 218.026 213.332 217.978 213.332C217.978 213.332 217.857 213.332 217.808 213.332C216.742 213.332 215.869 214.957 215.869 216.97C215.869 218.983 216.742 220.608 217.808 220.608L217.833 220.608Z" fill="url(#paint16_linear_86_817)"></path> <path d="M237.855 878.069L238.122 878.069L238.122 856.24L236.861 856.24L236.813 878.069L237.855 878.069ZM240.788 878.045L242.122 877.996L241.879 856.167L240.619 856.215L240.788 878.045ZM234.146 878.02L234.389 856.191L233.128 856.143L232.813 877.972L234.146 878.02ZM244.788 877.851L246.097 877.754L245.661 855.949L244.4 856.046L244.812 877.851L244.788 877.851ZM230.171 877.802L230.656 855.997L229.395 855.9L228.886 877.705L230.195 877.802L230.171 877.802ZM248.763 877.511L250.072 877.365L249.394 855.585L248.133 855.73L248.788 877.535L248.763 877.511ZM226.196 877.414L226.899 855.633L225.638 855.488L224.887 877.268L226.196 877.414ZM252.763 877.002L254.072 876.808L253.151 855.051L251.89 855.245L252.763 877.002ZM222.245 876.88L223.166 855.124L221.905 854.93L220.911 876.686L222.22 876.88L222.245 876.88ZM256.714 876.347L258.023 876.104L256.86 854.396L255.599 854.615L256.69 876.347L256.714 876.347ZM218.269 876.201L219.433 854.493L218.196 854.251L216.96 875.959L218.269 876.226L218.269 876.201ZM260.69 875.571L262.023 875.28L260.593 853.62L259.356 853.887L260.69 875.571ZM214.318 875.401L215.7 853.717L214.463 853.426L213.009 875.086L214.318 875.401ZM264.665 874.625L265.998 874.285L264.326 852.674L263.089 852.99L264.665 874.625ZM210.391 874.431L211.991 852.82L210.755 852.48L209.058 874.067L210.391 874.431ZM268.616 873.533L269.925 873.145L268.059 851.607L266.822 851.971L268.616 873.533ZM206.44 873.315L208.282 851.753L207.07 851.364L205.131 872.878L206.464 873.291L206.44 873.315ZM272.543 872.296L273.852 871.86L271.743 850.394L270.507 850.807L272.543 872.296ZM202.489 872.029L204.598 850.564L203.361 850.127L201.204 871.593L202.489 872.029ZM276.47 870.914L277.755 870.429L275.428 849.036L274.191 849.497L276.47 870.914ZM198.586 870.623L200.937 849.254L199.701 848.769L197.325 870.138L198.61 870.647L198.586 870.623ZM280.397 869.361L281.682 868.828L279.137 847.532L277.9 848.066L280.421 869.386L280.397 869.361ZM194.708 869.046L197.253 847.75L196.041 847.217L193.423 868.488L194.708 869.046ZM284.251 867.688L285.56 867.081L282.724 845.907L281.536 846.465L284.251 867.688ZM190.805 867.324L193.592 846.125L192.38 845.543L189.52 866.693L190.805 867.3L190.805 867.324ZM288.105 865.844L289.414 865.19L286.36 844.137L285.172 844.743L288.13 865.844L288.105 865.844ZM186.951 865.456L189.956 844.379L188.769 843.773L185.666 864.802L186.951 865.456ZM291.96 863.856L293.22 863.152L289.972 842.196L288.76 842.851L291.96 863.831L291.96 863.856ZM183.096 863.443L186.345 842.487L185.133 841.808L181.836 862.74L183.096 863.443ZM295.765 861.721L297.026 860.969L293.535 840.159L292.323 840.862L295.741 861.721L295.765 861.721ZM179.291 861.285L182.757 840.45L181.569 839.746L178.03 860.533L179.291 861.285ZM299.595 859.417L300.832 858.641L297.147 837.952L295.935 838.704L299.595 859.417ZM175.485 858.956L179.169 838.243L178.006 837.491L174.224 858.132L175.485 858.932L175.485 858.956ZM303.353 856.967C303.789 856.676 304.201 856.409 304.637 856.118L300.662 835.599L299.498 836.375L303.353 856.967ZM171.703 856.482L175.63 835.938L174.443 835.138L170.467 855.633L171.703 856.482ZM307.11 854.372L308.37 853.475L304.201 833.101L303.037 833.925L307.134 854.348L307.11 854.372ZM167.97 853.887L172.116 833.489L170.952 832.64L166.734 852.965L167.97 853.863L167.97 853.887ZM310.867 851.631L312.079 850.71L307.692 830.481L306.504 831.379L310.843 851.631L310.867 851.631ZM164.262 851.122L168.649 830.894L167.486 829.996L163.05 850.176L164.262 851.122ZM314.552 848.769L315.788 847.775L311.158 827.765L310.019 828.686L314.576 848.769L314.552 848.769ZM160.601 848.26L165.183 828.201L164.044 827.28L159.389 847.29L160.601 848.284L160.601 848.26ZM318.212 845.762L319.448 844.719L314.6 824.878L313.461 825.849L318.212 845.762ZM156.965 845.228L161.765 825.363L160.626 824.369L155.778 844.185L156.965 845.204L156.965 845.228ZM321.872 842.584L323.06 841.517L318.042 821.846L316.903 822.865L321.896 842.584L321.872 842.584ZM153.402 842.075L158.396 822.356L157.28 821.337L152.19 840.959L153.402 842.051L153.402 842.075ZM325.46 839.286L326.648 838.17L321.387 818.718L320.272 819.785L325.46 839.31L325.46 839.286ZM149.814 838.752L155.026 819.251L153.911 818.184L148.627 837.612L149.814 838.728L149.814 838.752ZM329.023 835.841L330.211 834.653L324.733 815.395L323.642 816.486L329.047 835.817L329.023 835.841ZM146.275 835.308L151.729 816.025L150.614 814.91L145.112 834.119L146.275 835.284L146.275 835.308ZM332.538 832.276L333.701 831.039L328.005 812.023L326.914 813.163L332.514 832.276L332.538 832.276ZM142.785 831.742L148.433 812.678L147.342 811.538L141.645 830.554L142.785 831.767L142.785 831.742ZM336.004 828.589L337.168 827.304L331.277 808.506L330.211 809.671L336.029 828.565L336.004 828.589ZM139.318 828.056L145.185 809.21L144.094 807.997L138.179 826.795L139.318 828.031L139.318 828.056ZM339.446 824.757L340.586 823.447L334.477 804.892L333.411 806.105L339.422 824.781L339.446 824.757ZM135.901 824.224L141.961 805.596L140.894 804.359L134.785 822.914L135.901 824.224ZM342.816 820.804L343.955 819.445L337.653 801.109L336.61 802.37L342.816 820.804ZM132.531 820.27L138.761 801.861L137.719 800.599L131.416 818.936L132.531 820.27ZM346.185 816.729L347.3 815.322L340.804 797.228L339.762 798.538L346.185 816.729ZM129.21 816.195L135.658 798.053L134.616 796.743L128.095 814.813L129.186 816.195L129.21 816.195ZM349.506 812.508L350.597 811.077L343.931 793.202L342.889 794.56L349.506 812.484L349.506 812.508ZM125.938 811.975L132.555 794.051L131.537 792.717L124.823 810.52L125.914 811.975L125.938 811.975ZM352.754 808.167C353.118 807.657 353.482 807.172 353.845 806.663L346.961 789.103C346.622 789.564 346.306 790.024 345.967 790.461L352.754 808.167ZM122.69 807.609L129.55 789.976L128.531 788.569L121.647 806.129L122.714 807.585L122.69 807.609ZM355.978 803.704L357.021 802.2L349.967 784.858L348.973 786.289L355.978 803.704ZM119.514 803.17L126.52 785.756L125.526 784.349L118.447 801.642L119.514 803.17ZM359.13 799.12L360.172 797.543L352.9 780.516L351.93 781.972L359.105 799.12L359.13 799.12ZM116.339 798.538L123.586 781.463L122.593 779.959L115.345 797.01L116.363 798.538L116.339 798.538ZM362.257 794.414L363.275 792.814L355.833 776.029L354.863 777.533L362.232 794.39L362.257 794.414ZM113.284 793.881L120.653 777C120.338 776.515 120.023 776.029 119.708 775.52L112.242 792.232C112.581 792.765 112.921 793.323 113.284 793.857L113.284 793.881ZM365.311 789.588L366.305 787.963L358.693 771.47L357.748 772.998L365.311 789.564L365.311 789.588ZM110.206 789.03L117.769 772.488L116.823 770.96L109.188 787.429L110.182 789.054L110.206 789.03ZM368.292 784.664L369.286 782.991L361.505 766.788L360.56 768.365L368.268 784.664L368.292 784.664ZM107.2 784.106L114.933 767.831L114.011 766.255L106.23 782.433L107.224 784.106L107.2 784.106ZM371.225 779.643L372.195 777.945L364.244 762.034L363.323 763.635L371.225 779.643ZM104.243 779.037L112.193 763.126L111.272 761.477L103.297 777.363L104.243 779.037ZM374.134 774.477L375.08 772.755L366.983 757.135L366.087 758.784L374.159 774.477L374.134 774.477ZM101.358 773.846L109.479 758.251L108.582 756.577L100.437 772.149L101.358 773.846ZM376.995 769.214L377.916 767.467L369.65 752.163L368.753 753.861L376.995 769.238L376.995 769.214ZM98.5462 768.607L106.812 753.279L105.939 751.605L97.6251 766.861L98.5462 768.632L98.5462 768.607ZM379.758 763.854L380.679 762.034L372.244 747.045L371.371 748.743L379.758 763.829L379.758 763.854ZM95.7828 763.247L104.194 748.209L103.346 746.511L94.8617 761.428L95.7828 763.271L95.7828 763.247ZM382.497 758.372L383.394 756.504L374.765 741.879L373.94 743.601L382.497 758.348L382.497 758.372ZM93.0921 757.766L101.649 743.019L100.825 741.297L92.1952 755.874C92.4861 756.504 92.8012 757.135 93.0921 757.766ZM385.164 752.793L386.036 750.926L377.286 736.591L376.461 738.386L385.188 752.793L385.164 752.793ZM90.4257 752.163L99.1522 737.78L98.328 736.009L89.553 750.271L90.4257 752.163ZM387.757 747.142L388.606 745.226L379.685 731.255L378.885 733.05L387.757 747.142ZM87.832 746.487L96.7039 732.42L95.904 730.625L86.9593 744.547L87.8077 746.487L87.832 746.487ZM390.303 741.369L391.151 739.405L382.061 725.798L381.285 727.617L390.303 741.369ZM85.2867 740.666L94.3284 726.986L93.5284 725.119L84.4625 738.726L85.2867 740.642L85.2867 740.666ZM392.799 735.5L393.599 733.559L384.412 720.244L383.636 722.135L392.799 735.524L392.799 735.5ZM82.8385 734.821L92.0013 721.408L91.2498 719.565L82.0143 732.808L82.8385 734.796L82.8385 734.821ZM395.199 729.557L395.999 727.544L386.642 714.641L385.915 716.508L395.223 729.582L395.199 729.557ZM80.4144 728.806L89.747 715.805L88.9955 713.889L79.6387 726.792L80.4144 728.806ZM397.55 723.494L398.326 721.456L388.848 708.868L388.121 710.784L397.575 723.469L397.55 723.494ZM78.0631 722.742L87.5169 710.081L86.7896 708.165L77.2874 720.68L78.0631 722.742ZM399.829 717.357L400.556 715.32L390.933 703.071L390.23 705.036L399.805 717.357L399.829 717.357ZM75.7845 716.605L85.3595 704.284C85.1171 703.653 84.8989 702.999 84.6807 702.368L75.0331 714.495C75.2755 715.199 75.5421 715.902 75.7845 716.605ZM402.035 711.148L402.762 709.038L392.993 697.226L392.315 699.166L402.011 711.148L402.035 711.148ZM73.5544 710.323L83.299 698.414L82.6203 696.426L72.8515 708.213L73.5787 710.299L73.5544 710.323ZM404.168 704.866L404.871 702.732L394.981 691.284L394.326 693.248L404.144 704.866L404.168 704.866ZM71.397 704.017L81.2386 692.448L80.5841 690.435L70.6941 701.859L71.397 703.993L71.397 704.017ZM406.228 698.487L406.907 696.328L396.896 685.244L396.266 687.257L406.228 698.487ZM69.3124 697.59L79.2994 686.433L78.6691 684.395L68.6579 695.431L69.3366 697.59L69.3124 697.59ZM408.24 692.035L408.895 689.852L398.762 679.18L398.156 681.194L408.24 692.035ZM67.3004 691.114L77.3844 680.32L76.7784 678.283L66.6459 688.931L67.3004 691.114ZM410.18 685.511L410.81 683.304L400.58 672.996L399.999 675.057L410.204 685.511L410.18 685.511ZM65.3612 684.517L75.5906 674.16L74.9846 672.05L64.7309 682.309L65.3612 684.492L65.3612 684.517ZM412.046 678.914L412.652 676.706L402.326 666.762L401.744 668.872L412.046 678.914ZM63.4947 677.895L73.821 667.926L73.2393 665.792L62.8887 675.688L63.4947 677.895ZM413.84 672.268L414.422 670.036L403.974 660.504L403.417 662.615L413.84 672.268ZM61.7009 671.225L72.1242 661.596L71.5909 659.51L61.1191 668.969L61.7009 671.249L61.7009 671.225ZM415.561 665.525L416.119 663.294L405.574 654.15L405.041 656.284L415.561 665.525ZM59.9799 664.409L70.5001 655.217L69.9668 653.082L59.3981 662.154L59.9556 664.434L59.9799 664.409ZM417.209 658.734L417.743 656.43L407.101 647.722L406.616 649.832L417.234 658.709L417.209 658.734ZM58.3315 657.521L68.973 648.765L68.464 646.582L57.8225 655.265L58.3558 657.545L58.3315 657.521ZM418.785 651.87L419.294 649.565L408.556 641.246L408.071 643.405L418.785 651.87ZM56.7559 650.657L67.4701 642.241L67.0095 640.082L56.2468 648.304L56.7559 650.657ZM420.288 644.933L420.773 642.604L409.937 634.722L409.477 636.905L420.264 644.933L420.288 644.933ZM55.253 643.623L66.0642 635.716L65.6036 633.485L54.7682 641.319L55.253 643.623ZM421.718 637.923L422.179 635.571L411.27 628.1L410.834 630.307L421.718 637.923ZM53.8471 636.614L64.7552 629.07L64.3188 626.839L53.3865 634.237L53.8471 636.589L53.8471 636.614ZM423.075 630.889L423.512 628.537L412.531 621.454L412.119 623.686L423.075 630.889ZM52.4896 629.507L63.4705 622.425L63.0584 620.169L52.0533 627.154L52.4896 629.507ZM424.336 623.783L424.748 621.382L413.694 614.76L413.307 616.991L424.336 623.783ZM51.2291 622.376L62.2827 615.682L61.8948 613.426L50.817 619.975L51.2291 622.376ZM425.548 616.603L425.936 614.226L414.81 607.993L414.446 610.273L425.548 616.628L425.548 616.603ZM50.0413 615.172L61.1676 608.963L60.804 606.683L49.6534 612.82L50.0171 615.172L50.0413 615.172ZM426.663 609.424L427.027 607.023L415.828 601.226L415.488 603.482L426.663 609.4L426.663 609.424ZM48.9263 607.993L60.1253 602.172L59.7859 599.892L48.5869 605.568L48.9263 607.969L48.9263 607.993ZM427.705 602.172L428.045 599.771L416.797 594.41L416.482 596.69L427.73 602.172L427.705 602.172ZM47.9082 600.765L59.1557 595.332L58.8648 593.076L47.593 598.315L47.9324 600.765L47.9082 600.765ZM428.651 594.895L428.966 592.47L417.646 587.571L417.355 589.85L428.651 594.895ZM46.9385 593.44L58.2588 588.516L57.9679 586.212L46.6477 591.015L46.9385 593.44ZM429.523 587.571L429.79 585.121L418.421 580.634L418.155 582.938L429.499 587.546L429.523 587.571ZM46.0659 586.115L57.4346 581.628L57.168 579.275L45.7992 583.69L46.0659 586.091L46.0659 586.115ZM430.323 580.246L430.566 577.796L419.149 573.77L418.906 576.074L430.299 580.27L430.323 580.246ZM45.266 578.766L56.6832 574.74L56.4407 572.387L45.0236 576.341L45.266 578.766ZM431.026 572.872L431.244 570.398L419.803 566.833L419.585 569.137L431.026 572.872ZM44.5388 571.417L55.9802 567.755L55.7863 565.426L44.3206 568.943L44.5388 571.393L44.5388 571.417ZM431.657 565.475L431.85 563L420.361 559.847L420.167 562.176L431.632 565.475L431.657 565.475ZM43.9085 564.019L55.3984 560.818L55.2287 558.489L43.7388 561.57L43.9328 564.044L43.9085 564.019ZM432.214 558.053L432.384 555.579L420.87 552.862L420.7 555.19L432.214 558.028L432.214 558.053ZM43.351 556.597L54.8651 553.832L54.7197 551.504L43.1813 554.123L43.351 556.597ZM432.699 550.631L432.844 548.132L421.306 545.852L421.16 548.181L432.699 550.606L432.699 550.631ZM42.8904 549.175L54.4288 546.798L54.3076 544.494L42.745 546.677L42.8904 549.175ZM433.087 543.16L433.208 540.662L421.645 538.843L421.548 541.171L433.111 543.16L433.087 543.16ZM42.5026 541.705L54.0652 539.789L53.9683 537.46L42.4056 539.182L42.5268 541.705L42.5026 541.705ZM433.426 535.69L433.523 533.216L421.936 531.809L421.863 534.162L433.45 535.69L433.426 535.69ZM42.2117 534.21L53.7986 532.804L53.7258 530.451L42.139 531.736L42.2117 534.235L42.2117 534.21ZM433.668 528.219L433.741 525.721L422.154 524.775L422.106 527.128L433.693 528.219L433.668 528.219ZM41.9693 526.74L53.5804 525.77L53.5319 523.368L41.9208 524.266L41.9693 526.716L41.9693 526.74ZM433.814 520.773L433.814 518.251L422.251 517.766L422.251 520.094L433.814 520.773ZM41.8238 519.245L53.435 518.736L53.435 516.335L41.7996 516.795L41.7996 519.245L41.8238 519.245ZM433.935 513.278L433.935 510.78L422.324 510.683L422.324 513.036L433.935 513.254L433.935 513.278ZM41.7996 511.775L53.4107 511.653L53.4107 508.816L41.7996 508.816L41.7996 511.775ZM422.348 505.978L433.959 505.784L433.959 503.285L422.324 503.649L422.324 506.002L422.348 505.978ZM53.4592 504.134L53.4592 501.758L41.8723 501.321L41.8723 503.771L53.4592 504.159L53.4592 504.134ZM422.3 498.92L433.911 498.289L433.862 495.791L422.251 496.591L422.3 498.944L422.3 498.92ZM53.5561 497.076L53.6046 494.724L41.9935 493.826L41.945 496.3L53.5561 497.076ZM422.154 491.886L433.741 490.794L433.668 488.32L422.082 489.533L422.154 491.886ZM53.7258 490.043L53.7985 487.69L42.2117 486.356L42.139 488.83L53.7258 490.043ZM421.936 484.828L433.523 483.324L433.426 480.826L421.839 482.499L421.936 484.828ZM53.9682 482.96L54.0652 480.632L42.5026 478.837L42.4056 481.359L53.9925 482.96L53.9682 482.96ZM421.645 477.794L433.208 475.853L433.087 473.355L421.524 475.465L421.645 477.794ZM54.2833 475.951L54.4046 473.622L42.8662 471.391L42.745 473.889L54.3076 475.926L54.2833 475.951ZM421.257 470.784L432.796 468.383L432.65 465.885L421.112 468.456L421.257 470.784ZM54.6712 468.965L54.8166 466.612L43.3025 463.92L43.1571 466.394L54.6954 468.941L54.6712 468.965ZM420.821 463.775L432.335 460.937L432.166 458.463L420.676 461.446L420.845 463.775L420.821 463.775ZM55.156 461.956L55.3257 459.579L43.8358 456.498L43.6661 458.924L55.156 461.931L55.156 461.956ZM420.312 456.765L431.802 453.515L431.608 451.041L420.142 454.461L420.336 456.765L420.312 456.765ZM55.7135 454.97L55.9074 452.618L44.4418 449.101L44.2236 451.526L55.6893 454.97L55.7135 454.97ZM419.706 449.804L431.147 446.093L430.905 443.619L419.488 447.475L419.706 449.78L419.706 449.804ZM56.3195 447.985L56.5377 445.656L45.1205 441.679L44.8781 444.128L56.2953 447.961L56.3195 447.985ZM419.027 442.867L430.42 438.72L430.154 436.27L418.785 440.587L419.027 442.891L419.027 442.867ZM57.0225 441.048L57.2649 438.744L45.8962 434.329L45.6296 436.779L57.0225 441.072L57.0225 441.048ZM418.276 435.954L429.62 431.346L429.329 428.921L417.985 433.65L418.252 435.954L418.276 435.954ZM57.7982 434.135L58.0648 431.88L46.7446 427.005L46.4537 429.479L57.7982 434.135ZM417.452 429.09L428.748 424.07L428.433 421.62L417.161 426.835L417.452 429.09ZM58.6466 427.32L58.9375 425.04L47.6657 419.728L47.3506 422.154L58.6224 427.32L58.6466 427.32ZM416.555 422.251L427.802 416.793L427.463 414.392L416.24 419.995L416.555 422.275L416.555 422.251ZM59.5678 420.48L59.9071 418.176L48.7081 412.476L48.3687 414.853L59.592 420.48L59.5678 420.48ZM415.585 415.435L426.76 409.541L426.396 407.116L415.246 413.204L415.585 415.435ZM60.5616 413.664L60.901 411.409L49.7504 405.272L49.3868 407.674L60.5373 413.689L60.5616 413.664ZM414.543 408.668L425.645 402.337L425.257 399.936L414.179 406.412L414.543 408.668ZM61.6282 406.873L61.9918 404.642L50.9139 398.069L50.5019 400.47L61.6039 406.873L61.6282 406.873ZM413.404 401.901L424.433 395.158L424.021 392.781L412.991 399.67L413.379 401.925L413.404 401.901ZM62.7675 400.179L63.1795 397.923L52.1744 390.938L51.7624 393.291L62.7675 400.179ZM412.216 395.182L423.172 388.003L422.736 385.626L411.804 392.951L412.216 395.182ZM64.0037 393.509L64.4158 391.277L53.5077 383.856L53.0713 386.208L64.0037 393.509ZM410.955 388.537L421.839 380.921L421.379 378.592L410.519 386.305L410.955 388.537ZM65.2885 386.887L65.7248 384.68L54.8893 376.822L54.4288 379.15L65.2885 386.887ZM409.622 381.915L420.409 373.887L419.924 371.583L409.137 379.708L409.598 381.915L409.622 381.915ZM66.6701 380.29L67.1307 378.107L56.3923 369.861L55.8832 372.165L66.6701 380.29ZM408.216 375.342L418.93 366.901L418.421 364.597L407.731 373.159L408.216 375.342ZM68.1003 373.79L68.5851 371.631L57.9437 362.948L57.4104 365.228L68.1003 373.766L68.1003 373.79ZM406.737 368.842L417.355 360.013L416.797 357.709L406.228 366.707L406.737 368.842ZM69.6032 367.362L70.1123 365.204L59.5435 356.132L59.0102 358.364L69.6032 367.338L69.6032 367.362ZM405.186 362.414L415.706 353.173L415.149 350.918L404.677 360.304L405.21 362.439L405.186 362.414ZM71.1788 360.959L71.7121 358.873L61.2646 349.365C61.0706 350.117 60.8767 350.869 60.6828 351.645L71.1788 360.959ZM403.562 356.06L413.961 346.406L413.379 344.175L403.004 353.949L403.562 356.06ZM72.8272 354.653L73.3847 352.591L63.0341 342.695C62.8402 343.447 62.622 344.199 62.4281 344.951L72.8272 354.653ZM401.865 349.753L412.167 339.688L411.561 337.48L401.283 347.667L401.865 349.753ZM74.524 348.395L75.1058 346.334L64.8521 336.05L64.2219 338.257L74.4998 348.371L74.524 348.395ZM400.096 343.496L410.301 333.066L409.646 330.859L399.49 341.458L400.096 343.496ZM76.2935 342.21L76.8996 340.149L66.7671 329.501L66.1126 331.684L76.2935 342.21ZM398.278 337.335L408.362 326.517L407.683 324.334L397.647 335.322L398.278 337.335ZM78.1358 336.074L78.7661 334.061L68.7548 323.025L68.0761 325.183L78.1358 336.074ZM396.387 331.223L406.35 320.017L405.647 317.858L395.732 329.21L396.363 331.199L396.387 331.223ZM80.0508 330.01L80.7053 328.021L70.8152 316.597L70.1123 318.732L80.0508 330.01ZM394.423 325.208L404.265 313.614L403.562 311.479L393.769 323.219L394.423 325.208ZM82.0143 324.043L82.693 322.055L72.9241 310.267L72.2212 312.377L82.0385 324.043L82.0143 324.043ZM392.387 319.265L402.108 307.332C401.865 306.629 401.623 305.925 401.356 305.222L391.708 317.349L392.387 319.289L392.387 319.265ZM84.0504 318.125L84.7292 316.209L75.1058 304.033C74.8634 304.737 74.5967 305.44 74.3543 306.144L84.0504 318.15L84.0504 318.125ZM390.303 313.42L399.877 301.098L399.126 299.037L389.6 311.504L390.303 313.444L390.303 313.42ZM86.1351 312.304L86.8381 310.388L77.3116 297.873L76.5602 299.91L86.1109 312.304L86.1351 312.304ZM388.145 307.623L397.575 294.914L396.799 292.9L387.394 305.683L388.121 307.599L388.145 307.623ZM88.2925 306.556L89.0197 304.664L79.6387 291.785L78.863 293.798L88.2925 306.556ZM385.915 301.923L395.223 288.874L394.423 286.861L385.188 300.056L385.939 301.923L385.915 301.923ZM90.4984 300.88L91.2498 299.037L82.0143 285.794L81.2143 287.807L90.4984 300.904L90.4984 300.88ZM383.636 296.32L392.799 282.907L391.999 280.967L382.861 294.453L383.636 296.32ZM92.777 295.302L93.5526 293.458L84.4625 279.876L83.6384 281.84L92.777 295.302ZM381.285 290.79L390.303 277.038L389.454 275.097L380.509 288.995L381.285 290.79ZM95.1283 289.796L95.9039 288.001L86.9835 274.055L86.1351 275.995L95.1283 289.796ZM378.91 285.357L387.782 271.265L386.909 269.349L378.11 283.587L378.91 285.357ZM97.5523 284.387L98.3522 282.641L89.5772 268.355C89.2863 268.985 88.9955 269.64 88.7046 270.271L97.5765 284.363L97.5523 284.387ZM376.461 280.045L385.164 265.59L384.291 263.722L375.637 278.275L376.461 280.045ZM100.001 279.075L100.825 277.329L92.1952 262.728L91.2983 264.595L100.001 279.051L100.001 279.075ZM373.965 274.782L382.521 260.011L381.625 258.192L373.116 273.06L373.965 274.782ZM102.522 273.861L103.37 272.138L94.8859 257.222L93.989 259.041L102.497 273.885L102.522 273.861ZM371.395 269.616L379.782 254.529L378.91 252.807L370.522 267.918L371.395 269.64L371.395 269.616ZM105.067 268.743L105.939 267.045L97.625 251.813L96.7281 253.559L105.067 268.767L105.067 268.743ZM368.753 264.571L376.97 249.169L376.025 247.399L367.856 262.897L368.753 264.571ZM107.685 263.698L108.582 262.024L100.437 246.477L99.4915 248.223L107.685 263.698ZM366.062 259.623L374.134 243.93L373.165 242.184L365.165 257.998L366.062 259.623ZM110.351 258.774L111.272 257.149L103.297 241.286L102.352 242.984L110.375 258.774L110.351 258.774ZM363.347 254.772L371.25 238.764L370.28 237.066L362.426 253.171L363.347 254.772ZM113.115 253.923L114.036 252.347L106.23 236.169L105.236 237.867L113.09 253.923L113.115 253.923ZM360.584 250.042L368.292 233.719L367.298 232.07L359.639 248.466L360.584 250.042ZM115.902 249.218L116.848 247.665L109.212 231.221L108.218 232.87L115.902 249.242L115.902 249.218ZM357.748 245.41L365.287 228.82L364.293 227.219L356.802 243.882L357.748 245.41ZM118.738 244.609L119.684 243.106L112.242 226.346L111.224 227.946L118.738 244.585L118.738 244.609ZM354.887 240.898L362.232 223.993L361.214 222.441L353.894 239.395L354.863 240.898L354.887 240.898ZM121.623 240.098L122.593 238.618L115.32 221.616L114.302 223.168L121.623 240.098ZM351.979 236.484L359.154 219.312L358.136 217.808L350.985 235.029L351.979 236.508L351.979 236.484ZM124.556 235.684L125.55 234.228L118.472 216.935L117.429 218.463L124.556 235.684ZM348.997 232.167L355.978 214.728L354.936 213.248L348.003 230.76L349.021 232.167L348.997 232.167ZM127.538 231.391L128.556 229.984L121.671 212.423L120.605 213.903L127.562 231.391L127.538 231.391ZM345.991 227.971L352.803 210.289L351.736 208.858L344.973 226.612L345.991 227.995L345.991 227.971ZM130.568 227.195L131.586 225.836L124.871 208.009L123.78 209.464L130.543 227.195L130.568 227.195ZM342.937 223.896L349.555 205.947L348.464 204.541L341.919 222.562L342.961 223.896L342.937 223.896ZM133.646 223.144L134.664 221.834L128.168 203.764L127.053 205.171L133.622 223.144L133.646 223.144ZM339.834 219.967L346.234 201.776L345.119 200.417L338.768 218.705L339.81 219.991L339.834 219.967ZM136.773 219.215L137.815 217.929L131.513 199.617L130.398 200.975L136.773 219.215ZM336.707 216.134L342.937 197.725L341.798 196.391L335.665 214.922L336.707 216.159L336.707 216.134ZM139.949 215.407L141.015 214.17L134.907 195.615L133.767 196.949L139.949 215.431L139.949 215.407ZM333.532 212.448L339.543 193.772L338.404 192.486L332.441 211.235L333.507 212.448L333.532 212.448ZM143.148 211.72L144.215 210.507L138.3 191.71L137.161 192.995L143.148 211.696L143.148 211.72ZM330.308 208.858L336.125 189.964L334.962 188.727L329.217 207.694L330.284 208.858L330.308 208.858ZM146.397 208.13L147.463 206.966L141.767 187.95L140.603 189.212L146.397 208.13ZM327.06 205.389L332.659 186.277L331.496 185.064L325.969 204.25L327.06 205.365L327.06 205.389ZM149.669 204.686L150.784 203.57L145.281 184.361L144.118 185.549L149.693 204.71L149.669 204.686ZM323.763 202.067L329.168 182.76L327.981 181.596L322.648 200.999L323.739 202.067L323.763 202.067ZM152.966 201.363L154.081 200.272L148.796 180.844L147.609 181.984L152.966 201.363ZM320.442 198.865L325.629 179.34L324.442 178.249L319.303 197.822L320.418 198.865L320.442 198.865ZM156.335 198.162L157.45 197.143L152.384 177.497L151.172 178.612L156.335 198.162ZM317.073 195.785L322.066 176.066L320.854 174.998L315.958 194.79L317.073 195.785ZM159.704 195.106L160.844 194.111L155.971 174.295L154.784 175.338L159.704 195.106ZM313.679 192.826L318.454 172.912L317.242 171.894L312.54 191.855L313.679 192.801L313.679 192.826ZM163.122 192.146L164.262 191.201L159.607 171.19L158.395 172.209L163.122 192.146ZM310.261 190.012L314.818 169.929L313.606 168.959L309.122 189.09L310.261 190.012ZM166.589 189.357L167.752 188.46L163.341 168.28L162.104 169.25L166.613 189.381L166.589 189.357ZM306.819 187.32L311.158 167.067L309.922 166.145L305.68 186.471L306.843 187.344L306.819 187.32ZM170.079 186.665L171.243 185.792L167.025 165.442L165.789 166.364L170.055 186.665L170.079 186.665ZM303.328 184.749L307.449 164.351L306.189 163.477L302.165 183.948L303.328 184.773L303.328 184.749ZM173.594 184.118L174.782 183.294L170.807 162.774L169.546 163.647L173.594 184.094L173.594 184.118ZM299.813 182.323L303.692 161.755L302.431 160.931L298.601 181.547L299.789 182.323L299.813 182.323ZM177.109 181.741L178.321 180.965L174.564 160.324L173.303 161.125L177.109 181.741ZM296.274 180.043L299.935 159.33L298.698 158.554L295.087 179.291L296.299 180.043L296.274 180.043ZM180.697 179.486L181.884 178.758L178.369 157.947L177.109 158.724L180.697 179.486ZM292.711 177.909L296.153 157.05L294.893 156.322L291.523 177.206L292.735 177.909L292.711 177.909ZM184.308 177.375L185.52 176.696L182.224 155.764L180.963 156.468L184.333 177.351L184.308 177.375ZM289.123 175.896L292.347 154.916L291.087 154.236L287.936 175.241L289.148 175.896L289.123 175.896ZM187.896 175.386L189.108 174.756L186.029 153.703L184.745 154.358L187.896 175.362L187.896 175.386ZM285.512 174.004L288.493 152.902L287.208 152.272L284.324 173.422L285.536 174.004L285.512 174.004ZM191.532 173.519L192.744 172.937L189.908 151.762L188.623 152.393L191.556 173.519L191.532 173.519ZM281.876 172.258L284.639 151.059L283.33 150.477L280.664 171.724L281.876 172.282L281.876 172.258ZM195.168 171.821L196.38 171.287L193.762 150.016L192.477 150.574L195.168 171.821ZM278.215 170.657L280.736 149.337L279.427 148.803L277.003 170.147L278.215 170.657ZM198.828 170.244L200.04 169.759L197.665 148.391L196.356 148.925L198.828 170.244ZM274.555 169.177L276.834 147.785L275.525 147.3L273.319 168.716L274.555 169.177ZM202.513 168.813L203.725 168.377L201.592 146.911L200.283 147.397L202.537 168.813L202.513 168.813ZM270.871 167.868L272.931 146.378L271.622 145.941L269.659 167.455L270.895 167.868L270.871 167.868ZM206.197 167.552L207.434 167.164L205.519 145.626L204.21 146.038L206.197 167.552ZM267.186 166.703L269.004 145.141L267.695 144.753L265.95 166.339L267.186 166.703ZM209.882 166.412L211.118 166.073L209.446 144.462L208.137 144.826L209.882 166.412ZM263.477 165.66L265.053 144.025L263.72 143.686L262.217 165.321L263.453 165.636L263.477 165.66ZM213.615 165.418L214.851 165.127L213.397 143.467L212.064 143.783L213.591 165.418L213.615 165.418ZM259.768 164.787L261.102 143.103L259.793 142.812L258.508 164.52L259.744 164.787L259.768 164.787ZM217.348 164.569L218.584 164.326L217.372 142.618L216.039 142.885L217.348 164.569ZM256.035 164.035L257.151 142.303L255.817 142.061L254.775 163.793L256.011 164.011L256.035 164.035ZM221.081 163.866L222.317 163.671L221.348 141.915L220.014 142.133L221.057 163.866L221.081 163.866ZM252.302 163.429L253.175 141.672L251.842 141.478L251.042 163.259L252.278 163.429L252.302 163.429ZM224.814 163.283L226.074 163.114L225.323 141.333L224.014 141.503L224.838 163.283L224.814 163.283ZM248.569 162.944L249.224 141.139L247.891 141.018L247.333 162.823L248.569 162.944ZM228.571 162.847L229.807 162.726L229.298 140.921L227.965 141.042L228.571 162.847ZM244.812 162.629L245.224 140.824L243.915 140.751L243.576 162.58L244.836 162.653L244.812 162.629ZM232.304 162.58L233.54 162.507L233.274 140.678L231.941 140.751L232.304 162.58ZM241.055 162.459L241.249 140.63L239.916 140.63L239.819 162.434L241.055 162.434L241.055 162.459ZM236.061 162.459L237.322 162.459L237.273 140.605L235.94 140.605L236.061 162.459Z" fill="url(#paint17_linear_86_817)"></path> <path d="M50.7197 509.31H54.5982C54.5982 326.041 133.888 176.972 231.358 176.972C242.97 176.972 254.581 179.107 265.877 183.303L266.628 176.172C255.09 171.879 243.236 169.696 231.358 169.696C131.755 169.696 50.7197 322.039 50.7197 509.31Z" fill="url(#paint18_linear_86_817)"></path> <path d="M410.252 509.31C410.252 572.251 401.016 633.712 383.563 687.048L380.267 683.24C397.356 631.044 406.373 574.07 406.373 509.31C406.373 444.55 396.483 381.779 377.721 327.812L380.97 323.834C400.119 378.989 410.252 443.143 410.252 509.31Z" fill="url(#paint19_linear_86_817)"></path> <path d="M373.674 718.41C339.155 801.361 287.281 848.924 231.335 848.924C172.794 848.924 117.647 795.225 83.7837 705.264L86.9349 701.068C120.071 789.088 176.6 841.648 231.335 841.648C286.069 841.648 336.853 795.079 370.619 713.923L373.674 718.41Z" fill="url(#paint20_linear_86_817)"></path> <path d="M329.968 224.73L327.86 230.818C312.709 212.239 296.226 198.195 278.87 189.1L279.912 182.09C297.656 191.38 314.503 205.739 329.968 224.73Z" fill="url(#paint21_linear_86_817)"></path> <path d="M223.796 829.415C318.042 829.415 394.714 685.245 394.714 508.04C394.714 330.835 318.042 186.666 223.796 186.666C129.549 186.666 52.8773 330.835 52.8774 508.04C52.8774 685.245 129.55 829.415 223.796 829.415ZM223.796 189.091C317.339 189.091 393.43 332.169 393.43 508.04C393.43 683.911 317.339 826.989 223.796 826.989C130.252 826.989 54.1621 683.911 54.1621 508.04C54.1621 332.169 130.252 189.091 223.796 189.091Z" fill="url(#paint22_linear_86_817)"></path> <path d="M192.041 772.191C269.004 772.191 331.617 654.459 331.617 509.731C331.617 365.003 269.004 247.271 192.041 247.271C115.078 247.271 52.4654 365.003 52.4654 509.731C52.4654 654.459 115.078 772.191 192.041 772.191ZM192.041 293.379C255.502 293.379 307.11 390.446 307.11 509.755C307.11 629.064 255.478 726.131 192.041 726.131C128.604 726.131 76.9724 629.064 76.9724 509.755C76.9724 390.446 128.604 293.379 192.041 293.379Z" fill="url(#paint23_linear_86_817)"></path> <path d="M183.048 750.74C254.023 750.74 311.764 642.176 311.764 508.702C311.764 375.229 254.023 266.665 183.048 266.665C112.072 266.665 54.3317 375.229 54.3317 508.702C54.3317 642.176 112.072 750.74 183.048 750.74ZM183.048 309.183C241.564 309.183 289.172 398.683 289.172 508.702C289.172 618.721 241.564 708.221 183.048 708.221C124.532 708.221 76.9237 618.722 76.9237 508.702C76.9237 398.683 124.532 309.183 183.048 309.183Z" fill="url(#paint24_linear_86_817)"></path> <path d="M217.022 1001.21C97.1942 1001.21 0.0540759 780.334 0.0540329 507.875C0.0539899 235.417 97.194 14.5454 217.022 14.5454C336.851 14.5454 433.991 235.417 433.991 507.875C433.991 780.334 336.851 1001.21 217.022 1001.21Z" fill="url(#paint25_radial_86_817)" style="mix-blend-mode:color-dodge"></path> <defs> <linearGradient id="paint0_linear_86_817" x1="-28.2796" y1="508.548" x2="570.954" y2="509.421" gradientUnits="userSpaceOnUse"> <stop offset="0.00872504" stop-color="#6D2DF5" stop-opacity="0"></stop> <stop offset="0.980131" stop-color="#F40FF7"></stop> </linearGradient> <linearGradient id="paint1_linear_86_817" x1="461.375" y1="76.7884" x2="-45.9264" y2="76.7884" gradientUnits="userSpaceOnUse"> <stop stop-color="#ED1164"></stop> <stop offset="1" stop-color="#2F3191" stop-opacity="0"></stop> </linearGradient> <linearGradient id="paint2_linear_86_817" x1="461.375" y1="76.7884" x2="-45.9264" y2="76.7884" gradientUnits="userSpaceOnUse"> <stop stop-color="#ED1164"></stop> <stop offset="1" stop-color="#2F3191" stop-opacity="0"></stop> </linearGradient> <linearGradient id="paint3_linear_86_817" x1="461.375" y1="76.7884" x2="-45.9264" y2="76.7884" gradientUnits="userSpaceOnUse"> <stop stop-color="#ED1164"></stop> <stop offset="1" stop-color="#2F3191" stop-opacity="0"></stop> </linearGradient> <linearGradient id="paint4_linear_86_817" x1="461.375" y1="76.7884" x2="-45.9264" y2="76.7884" gradientUnits="userSpaceOnUse"> <stop stop-color="#ED1164"></stop> <stop offset="1" stop-color="#2F3191" stop-opacity="0"></stop> </linearGradient> <linearGradient id="paint5_linear_86_817" x1="461.375" y1="76.7884" x2="-45.9264" y2="76.7884" gradientUnits="userSpaceOnUse"> <stop stop-color="#ED1164"></stop> <stop offset="1" stop-color="#2F3191" stop-opacity="0"></stop> </linearGradient> <linearGradient id="paint6_linear_86_817" x1="461.375" y1="76.7884" x2="-45.9264" y2="76.7884" gradientUnits="userSpaceOnUse"> <stop stop-color="#ED1164"></stop> <stop offset="1" stop-color="#2F3191" stop-opacity="0"></stop> </linearGradient> <linearGradient id="paint7_linear_86_817" x1="461.375" y1="76.7884" x2="-45.9264" y2="76.7884" gradientUnits="userSpaceOnUse"> <stop stop-color="#ED1164"></stop> <stop offset="1" stop-color="#2F3191" stop-opacity="0"></stop> </linearGradient> <linearGradient id="paint8_linear_86_817" x1="461.375" y1="76.7884" x2="-45.9264" y2="76.7884" gradientUnits="userSpaceOnUse"> <stop stop-color="#ED1164"></stop> <stop offset="1" stop-color="#2F3191" stop-opacity="0"></stop> </linearGradient> <linearGradient id="paint9_linear_86_817" x1="461.375" y1="76.7884" x2="-45.9264" y2="76.7884" gradientUnits="userSpaceOnUse"> <stop stop-color="#ED1164"></stop> <stop offset="1" stop-color="#2F3191" stop-opacity="0"></stop> </linearGradient> <linearGradient id="paint10_linear_86_817" x1="461.375" y1="76.7884" x2="-45.9264" y2="76.7884" gradientUnits="userSpaceOnUse"> <stop stop-color="#ED1164"></stop> <stop offset="1" stop-color="#2F3191" stop-opacity="0"></stop> </linearGradient> <linearGradient id="paint11_linear_86_817" x1="461.375" y1="76.7884" x2="-45.9264" y2="76.7884" gradientUnits="userSpaceOnUse"> <stop stop-color="#ED1164"></stop> <stop offset="1" stop-color="#2F3191" stop-opacity="0"></stop> </linearGradient> <linearGradient id="paint12_linear_86_817" x1="461.375" y1="76.7884" x2="-45.9264" y2="76.7884" gradientUnits="userSpaceOnUse"> <stop stop-color="#ED1164"></stop> <stop offset="1" stop-color="#2F3191" stop-opacity="0"></stop> </linearGradient> <linearGradient id="paint13_linear_86_817" x1="461.375" y1="76.7884" x2="-45.9264" y2="76.7884" gradientUnits="userSpaceOnUse"> <stop stop-color="#ED1164"></stop> <stop offset="1" stop-color="#2F3191" stop-opacity="0"></stop> </linearGradient> <linearGradient id="paint14_linear_86_817" x1="461.375" y1="76.7884" x2="-45.9264" y2="76.7884" gradientUnits="userSpaceOnUse"> <stop stop-color="#ED1164"></stop> <stop offset="1" stop-color="#2F3191" stop-opacity="0"></stop> </linearGradient> <linearGradient id="paint15_linear_86_817" x1="37.9698" y1="508.051" x2="452.067" y2="508.051" gradientUnits="userSpaceOnUse"> <stop offset="0.23893" stop-color="#EC008C" stop-opacity="0"></stop> <stop offset="1" stop-color="#6020C6"></stop> </linearGradient> <linearGradient id="paint16_linear_86_817" x1="61.4341" y1="508.002" x2="374.886" y2="508.002" gradientUnits="userSpaceOnUse"> <stop stop-color="#5BBCFF" stop-opacity="0"></stop> <stop offset="1" stop-color="#1CADFF"></stop> </linearGradient> <linearGradient id="paint17_linear_86_817" x1="41.7754" y1="509.398" x2="433.935" y2="509.398" gradientUnits="userSpaceOnUse"> <stop stop-color="#2484C6"></stop> <stop offset="1" stop-color="#2432C6"></stop> </linearGradient> <linearGradient id="paint18_linear_86_817" x1="-319.949" y1="510.087" x2="409.743" y2="509.656" gradientUnits="userSpaceOnUse"> <stop stop-color="#7D38FF" stop-opacity="0"></stop> <stop offset="1" stop-color="#611CFF"></stop> </linearGradient> <linearGradient id="paint19_linear_86_817" x1="-319.949" y1="510.087" x2="409.743" y2="509.656" gradientUnits="userSpaceOnUse"> <stop stop-color="#7D38FF" stop-opacity="0"></stop> <stop offset="1" stop-color="#611CFF"></stop> </linearGradient> <linearGradient id="paint20_linear_86_817" x1="-319.949" y1="510.087" x2="409.743" y2="509.656" gradientUnits="userSpaceOnUse"> <stop stop-color="#7D38FF" stop-opacity="0"></stop> <stop offset="1" stop-color="#611CFF"></stop> </linearGradient> <linearGradient id="paint21_linear_86_817" x1="-319.949" y1="510.087" x2="409.743" y2="509.656" gradientUnits="userSpaceOnUse"> <stop stop-color="#7D38FF" stop-opacity="0"></stop> <stop offset="1" stop-color="#611CFF"></stop> </linearGradient> <linearGradient id="paint22_linear_86_817" x1="52.8774" y1="508.016" x2="394.714" y2="508.016" gradientUnits="userSpaceOnUse"> <stop stop-color="#2484C6" stop-opacity="0"></stop> <stop offset="1" stop-color="#2484C6"></stop> </linearGradient> <linearGradient id="paint23_linear_86_817" x1="69.1393" y1="727.5" x2="313.086" y2="201.587" gradientUnits="userSpaceOnUse"> <stop offset="0.110134" stop-color="#3EFFCD" stop-opacity="0.5"></stop> <stop offset="0.975013" stop-color="#EC008C"></stop> </linearGradient> <linearGradient id="paint24_linear_86_817" x1="134.598" y1="670.298" x2="277.866" y2="266.75" gradientUnits="userSpaceOnUse"> <stop stop-color="#4FFFD1"></stop> <stop offset="1" stop-color="#EC008C"></stop> </linearGradient> <radialGradient id="paint25_radial_86_817" cx="0" cy="0" r="1" gradientUnits="userSpaceOnUse" gradientTransform="translate(217.022 506.91) rotate(180) scale(198.787 385.486)"> <stop offset="0.305387" stop-color="white"></stop> <stop offset="0.385654" stop-color="#FD89FF"></stop> <stop offset="0.567799" stop-color="#FB00FF" stop-opacity="0.5"></stop> <stop offset="1" stop-color="#D12BDC" stop-opacity="0"></stop> </radialGradient> </defs> </svg> 