<?xml version="1.0" encoding="UTF-8"?> <svg xmlns="http://www.w3.org/2000/svg" width="1210" height="662" viewBox="0 0 1210 662" fill="none"> <path d="M200.478 579.079C203.071 579.079 205.229 580.898 205.786 583.324L543.575 583.324L565.44 605.201L838.895 605.201C839.453 602.8 841.61 600.981 844.204 600.981C847.209 600.981 849.658 603.431 849.658 606.438C849.658 609.446 847.209 611.896 844.204 611.896C841.61 611.896 839.428 610.052 838.895 607.627L564.446 607.627L542.581 585.749L205.786 585.749C205.229 588.175 203.071 589.994 200.478 589.994C197.472 589.994 195.024 587.544 195.024 584.536C195.024 581.529 197.472 579.079 200.478 579.079ZM844.228 609.47C845.9 609.47 847.258 608.112 847.258 606.438C847.258 604.765 845.9 603.407 844.228 603.407C842.555 603.407 841.198 604.765 841.198 606.438C841.198 608.112 842.555 609.47 844.228 609.47ZM200.478 587.568C202.15 587.568 203.508 586.21 203.508 584.536C203.508 582.863 202.15 581.505 200.478 581.505C198.805 581.505 197.448 582.863 197.448 584.536C197.448 586.21 198.805 587.568 200.478 587.568Z" fill="url(#paint0_linear_86_808)"></path> <path d="M690.763 579.079C693.356 579.079 695.514 580.898 696.071 583.324L882.819 583.324L904.684 605.201L992.385 605.201C992.943 602.8 995.1 600.981 997.694 600.981C1000.7 600.981 1003.15 603.431 1003.15 606.438C1003.15 609.446 1000.7 611.896 997.694 611.896C995.1 611.896 992.918 610.052 992.385 607.627L903.69 607.627L881.825 585.749L696.096 585.749C695.538 588.175 693.381 589.994 690.787 589.994C687.781 589.994 685.333 587.544 685.333 584.536C685.333 581.529 687.781 579.079 690.787 579.079L690.763 579.079ZM997.694 609.47C999.366 609.47 1000.72 608.112 1000.72 606.438C1000.72 604.765 999.366 603.407 997.694 603.407C996.021 603.407 994.664 604.765 994.664 606.438C994.664 608.112 996.021 609.47 997.694 609.47ZM690.763 587.568C692.435 587.568 693.793 586.21 693.793 584.536C693.793 582.863 692.435 581.505 690.763 581.505C689.09 581.505 687.733 582.863 687.733 584.536C687.733 586.21 689.09 587.568 690.763 587.568Z" fill="url(#paint1_linear_86_808)" style="mix-blend-mode:overlay"></path> <path d="M345.761 503.021C348.476 503.021 350.827 504.524 352.088 506.732L542.859 506.732L644.862 404.668L1095.61 404.668L1095.61 411.944L647.868 411.944L545.865 514.008L352.064 514.008C350.803 516.215 348.452 517.719 345.737 517.719C341.689 517.719 338.392 514.42 338.392 510.37C338.392 506.319 341.689 503.021 345.737 503.021L345.761 503.021Z" fill="url(#paint2_linear_86_808)" style="mix-blend-mode:overlay"></path> <path d="M201.739 323.192C204.454 323.192 206.805 324.696 208.065 326.903L328.297 326.903L351.786 350.406L481.908 350.406C483.169 348.199 485.52 346.695 488.235 346.695C492.283 346.695 495.58 349.994 495.58 354.044C495.58 358.095 492.283 361.393 488.235 361.393C485.52 361.393 483.169 359.89 481.908 357.683L348.78 357.683L325.292 334.18L208.09 334.18C206.829 336.387 204.478 337.891 201.763 337.891C197.715 337.891 194.418 334.592 194.418 330.542C194.418 326.491 197.715 323.192 201.763 323.192L201.739 323.192Z" fill="url(#paint3_linear_86_808)"></path> <path d="M383.493 275.726C386.086 275.726 388.244 277.545 388.801 279.97L583.863 279.97L649.142 345.288L1096.74 345.288L1096.74 347.714L648.124 347.714L582.845 282.396L388.801 282.396C388.244 284.821 386.086 286.64 383.493 286.64C380.487 286.64 378.038 284.191 378.038 281.183C378.038 278.176 380.487 275.726 383.493 275.726ZM383.493 284.215C385.165 284.215 386.523 282.857 386.523 281.183C386.523 279.51 385.165 278.151 383.493 278.151C381.82 278.151 380.462 279.51 380.462 281.183C380.462 282.857 381.82 284.215 383.493 284.215Z" fill="url(#paint4_linear_86_808)"></path> <path d="M286.216 239.902C288.81 239.902 290.967 241.721 291.525 244.146L1172.1 244.146L1172.1 246.572L291.525 246.572C290.967 248.997 288.81 250.816 286.216 250.816C283.21 250.816 280.762 248.367 280.762 245.359C280.762 242.351 283.21 239.902 286.216 239.902ZM286.216 248.391C287.888 248.391 289.246 247.033 289.246 245.359C289.246 243.685 287.888 242.327 286.216 242.327C284.543 242.327 283.186 243.685 283.186 245.359C283.186 247.033 284.543 248.391 286.216 248.391Z" fill="url(#paint5_linear_86_808)" style="mix-blend-mode:overlay"></path> <path d="M265.321 178.707C267.915 178.707 270.072 180.526 270.629 182.952L644.827 182.952L741.11 279.291L1071.7 279.291L1071.7 281.717L740.116 281.717L643.833 185.377L270.629 185.377C270.072 187.803 267.915 189.622 265.321 189.622C262.315 189.622 259.867 187.172 259.867 184.164C259.867 181.157 262.315 178.707 265.321 178.707ZM265.321 187.196C266.993 187.196 268.351 185.838 268.351 184.164C268.351 182.491 266.993 181.133 265.321 181.133C263.648 181.133 262.291 182.491 262.291 184.164C262.291 185.838 263.648 187.196 265.321 187.196Z" fill="url(#paint6_linear_86_808)"></path> <path d="M99.6938 294.3C102.288 294.3 104.445 296.119 105.002 298.544L480.606 298.544L521.839 339.802L1167.48 339.802L1167.48 342.227L520.845 342.227L479.612 300.97L105.027 300.97C104.469 303.395 102.312 305.214 99.7181 305.214C96.7123 305.214 94.264 302.765 94.264 299.757C94.264 296.75 96.7123 294.3 99.7181 294.3L99.6938 294.3ZM99.6938 302.789C101.366 302.789 102.724 301.431 102.724 299.757C102.724 298.084 101.366 296.725 99.6938 296.725C98.0212 296.725 96.6638 298.084 96.6638 299.757C96.6638 301.431 98.0212 302.789 99.6938 302.789Z" fill="url(#paint7_linear_86_808)"></path> <path d="M472.291 87.9212C474.884 87.9212 477.042 89.7403 477.599 92.1657L750.806 92.1657L802.68 40.2607L1000.87 40.2607C1001.43 37.8352 1003.58 36.0161 1006.18 36.0161C1009.18 36.0161 1011.63 38.4658 1011.63 41.4734C1011.63 44.481 1009.18 46.9307 1006.18 46.9307C1003.58 46.9307 1001.43 45.1116 1000.87 42.6862L803.674 42.6862L751.799 94.5912L477.575 94.5912C477.017 97.0167 474.86 98.8358 472.266 98.8358C469.26 98.8358 466.812 96.386 466.812 93.3785C466.812 90.3709 469.26 87.9212 472.266 87.9212L472.291 87.9212ZM1006.2 44.5053C1007.87 44.5053 1009.23 43.147 1009.23 41.4734C1009.23 39.7998 1007.87 38.4416 1006.2 38.4416C1004.53 38.4416 1003.17 39.7998 1003.17 41.4734C1003.17 43.147 1004.53 44.5053 1006.2 44.5053ZM472.291 96.4103C473.963 96.4103 475.321 95.052 475.321 93.3785C475.321 91.7049 473.963 90.3466 472.291 90.3466C470.618 90.3466 469.261 91.7049 469.261 93.3785C469.261 95.052 470.618 96.4103 472.291 96.4103Z" fill="url(#paint8_linear_86_808)" style="mix-blend-mode:overlay"></path> <path d="M19.6025 442.331C22.1962 442.331 24.3536 444.15 24.9111 446.575L149.288 446.575L224.069 371.75L1085.32 371.75L1085.32 374.175L225.088 374.175L150.306 449.001L24.9111 449.001C24.3536 451.426 22.1962 453.245 19.6025 453.245C16.5967 453.245 14.1484 450.796 14.1484 447.788C14.1484 444.781 16.5967 442.331 19.6025 442.331ZM19.6025 450.82C21.2751 450.82 22.6325 449.462 22.6325 447.788C22.6325 446.115 21.2751 444.756 19.6025 444.756C17.9299 444.756 16.5724 446.115 16.5724 447.788C16.5724 449.462 17.9299 450.82 19.6025 450.82Z" fill="url(#paint9_linear_86_808)"></path> <path d="M937.432 545.147C940.026 545.147 942.183 546.966 942.741 549.391L1020.79 549.391L1044.53 525.646L1148.95 525.646C1149.51 523.22 1151.67 521.401 1154.26 521.401C1157.27 521.401 1159.72 523.851 1159.72 526.859C1159.72 529.866 1157.27 532.316 1154.26 532.316C1151.67 532.316 1149.51 530.497 1148.95 528.071L1045.54 528.071L1021.81 551.817L942.765 551.817C942.207 554.242 940.05 556.061 937.456 556.061C934.45 556.061 932.002 553.612 932.002 550.604C932.002 547.596 934.45 545.147 937.456 545.147L937.432 545.147ZM1154.26 529.891C1155.93 529.891 1157.29 528.532 1157.29 526.859C1157.29 525.185 1155.93 523.827 1154.26 523.827C1152.59 523.827 1151.23 525.185 1151.23 526.859C1151.23 528.532 1152.59 529.891 1154.26 529.891ZM937.432 553.636C939.105 553.636 940.462 552.278 940.462 550.604C940.462 548.93 939.105 547.572 937.432 547.572C935.759 547.572 934.402 548.93 934.402 550.604C934.402 552.278 935.759 553.636 937.432 553.636Z" fill="url(#paint10_linear_86_808)"></path> <path d="M261.66 517.254C264.254 517.254 266.411 519.073 266.969 521.499L640.221 521.499L671.903 489.798L1209.26 489.798L1209.26 492.223L673.043 492.223L672.994 492.126L641.215 523.924L266.969 523.924C266.411 526.349 264.254 528.169 261.66 528.169C258.655 528.169 256.206 525.719 256.206 522.711C256.206 519.704 258.655 517.254 261.66 517.254ZM261.66 525.743C263.333 525.743 264.69 524.385 264.69 522.711C264.69 521.038 263.333 519.679 261.66 519.679C259.988 519.679 258.63 521.038 258.63 522.711C258.63 524.385 259.988 525.743 261.66 525.743Z" fill="url(#paint11_linear_86_808)"></path> <path d="M458.904 530.133C461.498 530.133 463.655 531.952 464.213 534.377L632.247 534.377L661.723 563.871L776.816 563.871C777.373 561.446 779.531 559.627 782.124 559.627C785.13 559.627 787.578 562.076 787.578 565.084C787.578 568.091 785.13 570.541 782.124 570.541C779.531 570.541 777.373 568.722 776.816 566.297L660.729 566.297L631.253 536.803L464.213 536.803C463.655 539.228 461.498 541.047 458.904 541.047C455.898 541.047 453.45 538.598 453.45 535.59C453.45 532.583 455.898 530.133 458.904 530.133ZM782.1 568.116C783.773 568.116 785.13 566.757 785.13 565.084C785.13 563.41 783.773 562.052 782.1 562.052C780.427 562.052 779.07 563.41 779.07 565.084C779.07 566.757 780.427 568.116 782.1 568.116ZM458.904 538.622C460.577 538.622 461.934 537.264 461.934 535.59C461.934 533.917 460.577 532.558 458.904 532.558C457.231 532.558 455.874 533.917 455.874 535.59C455.874 537.264 457.231 538.622 458.904 538.622Z" fill="url(#paint12_linear_86_808)"></path> <path d="M366.111 489.046C368.705 489.046 370.863 490.865 371.42 493.29L533.83 493.29L561.319 465.785L1166.45 465.785L1166.45 468.211L562.312 468.211L534.824 495.716L371.396 495.716C370.838 498.141 368.681 499.96 366.087 499.96C363.081 499.96 360.633 497.511 360.633 494.503C360.633 491.495 363.081 489.046 366.087 489.046L366.111 489.046ZM366.111 497.535C367.784 497.535 369.141 496.177 369.141 494.503C369.141 492.829 367.784 491.471 366.111 491.471C364.439 491.471 363.081 492.829 363.081 494.503C363.081 496.177 364.439 497.535 366.111 497.535Z" fill="url(#paint13_linear_86_808)"></path> <path d="M685.914 159.23C690.787 159.23 694.883 162.384 696.386 166.725L961.095 166.725L996.195 201.846L1195.52 201.846L1195.52 209.122L993.189 209.122L958.089 174.002L696.386 174.002C694.859 178.343 690.763 181.496 685.915 181.496C679.782 181.496 674.788 176.5 674.788 170.363C674.788 164.227 679.782 159.23 685.914 159.23ZM685.915 174.244C688.048 174.244 689.769 172.522 689.769 170.388C689.769 168.253 688.048 166.531 685.915 166.531C683.781 166.531 682.06 168.253 682.06 170.388C682.06 172.522 683.781 174.244 685.915 174.244Z" fill="url(#paint14_linear_86_808)"></path> <path d="M221.624 145.308C224.121 145.308 226.278 146.812 227.224 148.971L456.795 148.971L524.449 216.665L614.599 216.665L711.197 313.32L1177 313.32L1177 318.171L709.161 318.171L612.587 221.516L522.437 221.516L454.783 153.822L227.272 153.822C226.351 156.029 224.17 157.581 221.624 157.581C218.231 157.581 215.491 154.84 215.491 151.445C215.491 148.049 218.231 145.308 221.624 145.308Z" fill="url(#paint15_linear_86_808)" style="mix-blend-mode:overlay"></path> <path d="M501.223 461.977C503.744 461.977 505.926 463.505 506.847 465.688L532.449 465.688L611.521 386.57L1033.91 386.57L1033.91 391.421L613.533 391.421L534.461 470.539L506.847 470.539C505.901 472.722 503.744 474.25 501.223 474.25C497.829 474.25 495.09 471.509 495.09 468.114C495.09 464.718 497.829 461.977 501.223 461.977Z" fill="url(#paint16_linear_86_808)"></path> <path d="M330.14 543.279C332.83 543.279 335.133 544.928 336.103 547.281L702.059 547.281L744.358 504.957L1160.56 504.957L1160.56 509.807L746.346 509.807L704.046 552.132L336.127 552.132C335.182 554.509 332.854 556.207 330.14 556.207C326.576 556.207 323.667 553.296 323.667 549.731C323.667 546.165 326.576 543.255 330.14 543.255L330.14 543.279ZM330.14 552.569C331.691 552.569 332.976 551.307 332.976 549.731C332.976 548.154 331.715 546.893 330.14 546.893C328.564 546.893 327.303 548.154 327.303 549.731C327.303 551.307 328.564 552.569 330.14 552.569Z" fill="url(#paint17_linear_86_808)" style="mix-blend-mode:overlay"></path> <path d="M883.934 419.968C885.582 419.968 886.891 421.205 887.109 422.806L1006.83 422.806C1007.05 421.205 1008.36 419.968 1010.01 419.968C1011.83 419.968 1013.28 421.423 1013.28 423.242C1013.28 425.061 1011.83 426.517 1010.01 426.517C1008.36 426.517 1007.05 425.28 1006.83 423.679L887.109 423.679C886.891 425.28 885.582 426.517 883.934 426.517C882.116 426.517 880.661 425.061 880.661 423.242C880.661 421.423 882.116 419.968 883.934 419.968Z" fill="url(#paint18_linear_86_808)"></path> <path d="M885.824 222.462C887.473 222.462 888.782 223.699 889 225.3L1008.72 225.3C1008.94 223.699 1010.25 222.462 1011.9 222.462C1013.72 222.462 1015.17 223.917 1015.17 225.737C1015.17 227.556 1013.72 229.011 1011.9 229.011C1010.25 229.011 1008.94 227.774 1008.72 226.173L889 226.173C888.782 227.774 887.473 229.011 885.824 229.011C884.006 229.011 882.552 227.531 882.552 225.737C882.552 223.942 884.006 222.462 885.824 222.462Z" fill="url(#paint19_linear_86_808)"></path> <path d="M372.875 0.968519C374.523 0.968519 375.832 2.20552 376.051 3.80633L736.892 3.80632C737.11 2.20551 738.419 0.968506 740.067 0.968506C741.885 0.968506 743.34 2.4238 743.34 4.2429C743.34 6.062 741.885 7.51728 740.067 7.51728C738.419 7.51728 737.11 6.2803 736.892 4.67949L376.051 4.6795C375.832 6.28031 374.523 7.51729 372.875 7.51729C371.057 7.51729 369.603 6.03776 369.603 4.24292C369.603 2.44807 371.057 0.968519 372.875 0.968519Z" fill="url(#paint20_linear_86_808)"></path> <path d="M439.696 642.432C441.344 642.432 442.653 643.669 442.871 645.27L562.594 645.27C562.813 643.669 564.122 642.432 565.77 642.432C567.588 642.432 569.042 643.887 569.042 645.707C569.042 647.526 567.588 648.981 565.77 648.981C564.122 648.981 562.813 647.744 562.594 646.143L442.871 646.143C442.653 647.744 441.344 648.981 439.696 648.981C437.878 648.981 436.424 647.526 436.424 645.707C436.424 643.887 437.878 642.432 439.696 642.432Z" fill="url(#paint21_linear_86_808)" style="mix-blend-mode:overlay"></path> <path d="M11.5009 403.16C13.1492 403.16 14.4582 404.397 14.6764 405.998L134.399 405.998C134.617 404.397 135.926 403.16 137.575 403.16C139.393 403.16 140.847 404.615 140.847 406.434C140.847 408.253 139.393 409.709 137.575 409.709C135.926 409.709 134.617 408.472 134.399 406.871L14.6764 406.871C14.4582 408.472 13.1492 409.709 11.5009 409.709C9.68287 409.709 8.22837 408.253 8.22837 406.434C8.22836 404.615 9.68287 403.16 11.5009 403.16Z" fill="url(#paint22_linear_86_808)"></path> <path d="M3.40383 112.201C5.05217 112.201 6.36114 113.438 6.57931 115.039L257.297 115.038C257.515 113.438 258.824 112.201 260.472 112.201C262.29 112.201 263.745 113.656 263.745 115.475C263.745 117.294 262.29 118.749 260.472 118.749C258.824 118.749 257.515 117.512 257.297 115.912L6.57931 115.912C6.36114 117.512 5.05217 118.749 3.40383 118.749C1.58581 118.749 0.131449 117.27 0.131449 115.475C0.131448 113.68 1.58581 112.201 3.40383 112.201Z" fill="url(#paint23_linear_86_808)"></path> <path d="M589.414 655.295C591.063 655.295 592.372 656.532 592.59 658.133L883.982 658.133C884.201 656.532 885.51 655.295 887.158 655.295C888.976 655.295 890.43 656.751 890.43 658.57C890.43 660.389 888.976 661.844 887.158 661.844C885.51 661.844 884.201 660.607 883.982 659.006L592.59 659.006C592.372 660.607 591.063 661.844 589.414 661.844C587.596 661.844 586.142 660.389 586.142 658.57C586.142 656.751 587.596 655.295 589.414 655.295Z" fill="url(#paint24_linear_86_808)"></path> <path d="M771.615 106.236C773.263 106.236 774.572 107.473 774.79 109.074L1050.4 109.074C1050.62 107.473 1051.93 106.236 1053.58 106.236C1055.4 106.236 1056.85 107.691 1056.85 109.51C1056.85 111.329 1055.4 112.785 1053.58 112.785C1051.93 112.785 1050.62 111.548 1050.4 109.947L774.79 109.947C774.572 111.548 773.263 112.785 771.615 112.785C769.797 112.785 768.342 111.305 768.342 109.51C768.342 107.715 769.797 106.236 771.615 106.236Z" fill="url(#paint25_linear_86_808)"></path> <path d="M154.004 471.582C156.719 471.582 159.071 473.086 160.331 475.293L458.298 475.293L560.301 373.229L1011.05 373.229L1011.05 380.506L563.307 380.506L461.303 482.569L160.307 482.569C159.047 484.777 156.695 486.28 153.98 486.28C149.932 486.28 146.635 482.982 146.635 478.931C146.635 474.881 149.932 471.582 153.98 471.582L154.004 471.582Z" fill="url(#paint26_linear_86_808)"></path> <path d="M363.445 412.869C366.039 412.869 368.196 414.688 368.754 417.113L446.808 417.113L470.539 393.368L574.966 393.368C575.524 390.943 577.681 389.124 580.275 389.124C583.281 389.124 585.729 391.573 585.729 394.581C585.729 397.588 583.281 400.038 580.275 400.038C577.681 400.038 575.524 398.219 574.966 395.794L471.557 395.794L447.826 419.539L368.778 419.539C368.221 421.964 366.063 423.784 363.47 423.784C360.464 423.784 358.016 421.334 358.016 418.326C358.016 415.319 360.464 412.869 363.47 412.869L363.445 412.869ZM580.275 397.613C581.948 397.613 583.305 396.254 583.305 394.581C583.305 392.907 581.948 391.549 580.275 391.549C578.602 391.549 577.245 392.907 577.245 394.581C577.245 396.254 578.602 397.613 580.275 397.613ZM363.445 421.358C365.118 421.358 366.475 420 366.475 418.326C366.475 416.653 365.118 415.294 363.445 415.294C361.773 415.294 360.415 416.653 360.415 418.326C360.415 420 361.773 421.358 363.445 421.358Z" fill="url(#paint27_linear_86_808)" style="mix-blend-mode:overlay"></path> <defs> <linearGradient id="paint0_linear_86_808" x1="2994.24" y1="595.487" x2="-2252.88" y2="595.488" gradientUnits="userSpaceOnUse"> <stop stop-color="#7316B6"></stop> <stop offset="1" stop-color="#7316B6" stop-opacity="0.5"></stop> </linearGradient> <linearGradient id="paint1_linear_86_808" x1="389.813" y1="595.499" x2="1991.17" y2="595.499" gradientUnits="userSpaceOnUse"> <stop offset="0.184606" stop-color="#ED33B3"></stop> <stop offset="0.382067" stop-color="#ED33B3" stop-opacity="0"></stop> </linearGradient> <linearGradient id="paint2_linear_86_808" x1="-365.707" y1="461.233" x2="3449.65" y2="461.232" gradientUnits="userSpaceOnUse"> <stop offset="0.184606" stop-color="#ED33B3"></stop> <stop offset="0.382067" stop-color="#ED33B3" stop-opacity="0"></stop> </linearGradient> <linearGradient id="paint3_linear_86_808" x1="1482.19" y1="342.293" x2="-931.732" y2="342.293" gradientUnits="userSpaceOnUse"> <stop offset="0.323946" stop-color="#7316B6" stop-opacity="0"></stop> <stop offset="0.537422" stop-color="#7316B6"></stop> </linearGradient> <linearGradient id="paint4_linear_86_808" x1="3451.2" y1="311.719" x2="-2309.44" y2="311.721" gradientUnits="userSpaceOnUse"> <stop offset="0.408451" stop-color="#7316B6" stop-opacity="0"></stop> <stop offset="0.5372" stop-color="#7316B6"></stop> </linearGradient> <linearGradient id="paint5_linear_86_808" x1="-548.05" y1="245.363" x2="3943.1" y2="245.362" gradientUnits="userSpaceOnUse"> <stop offset="0.154522" stop-color="#E82CF7"></stop> <stop offset="0.354869" stop-color="#E82CF7" stop-opacity="0"></stop> </linearGradient> <linearGradient id="paint6_linear_86_808" x1="-580.236" y1="230.15" x2="2207.52" y2="230.15" gradientUnits="userSpaceOnUse"> <stop offset="0.277387" stop-color="#ED1164"></stop> <stop offset="0.52724" stop-color="#ED1164" stop-opacity="0"></stop> </linearGradient> <linearGradient id="paint7_linear_86_808" x1="-1016.32" y1="318.235" x2="2669" y2="318.234" gradientUnits="userSpaceOnUse"> <stop offset="0.214982" stop-color="#ED1164"></stop> <stop offset="0.56148" stop-color="#ED1164" stop-opacity="0"></stop> </linearGradient> <linearGradient id="paint8_linear_86_808" x1="-39.7873" y1="67.448" x2="2705.36" y2="67.4474" gradientUnits="userSpaceOnUse"> <stop offset="0.154522" stop-color="#E82CF7"></stop> <stop offset="0.500378" stop-color="#E82CF7" stop-opacity="0"></stop> </linearGradient> <linearGradient id="paint9_linear_86_808" x1="4594.49" y1="412.497" x2="-3991.35" y2="412.499" gradientUnits="userSpaceOnUse"> <stop offset="0.408349" stop-color="#7316B6" stop-opacity="0"></stop> <stop offset="0.533423" stop-color="#7316B6"></stop> </linearGradient> <linearGradient id="paint10_linear_86_808" x1="1905.71" y1="538.731" x2="80.5009" y2="538.732" gradientUnits="userSpaceOnUse"> <stop offset="0.462626" stop-color="#7316B6" stop-opacity="0"></stop> <stop offset="0.532883" stop-color="#7316B6"></stop> </linearGradient> <linearGradient id="paint11_linear_86_808" x1="1208.69" y1="508.983" x2="144.454" y2="508.983" gradientUnits="userSpaceOnUse"> <stop offset="0.15628" stop-color="#7316B6" stop-opacity="0"></stop> <stop offset="0.810278" stop-color="#7316B6"></stop> </linearGradient> <linearGradient id="paint12_linear_86_808" x1="107.686" y1="550.313" x2="1255.05" y2="550.313" gradientUnits="userSpaceOnUse"> <stop stop-color="#ED1164"></stop> <stop offset="0.710861" stop-color="#ED1164" stop-opacity="0"></stop> </linearGradient> <linearGradient id="paint13_linear_86_808" x1="1105.66" y1="482.873" x2="283.847" y2="482.873" gradientUnits="userSpaceOnUse"> <stop stop-color="#7316B6" stop-opacity="0"></stop> <stop offset="1" stop-color="#7316B6"></stop> </linearGradient> <linearGradient id="paint14_linear_86_808" x1="135.924" y1="184.146" x2="1924.07" y2="184.146" gradientUnits="userSpaceOnUse"> <stop offset="0.277387" stop-color="#ED1164"></stop> <stop offset="0.570626" stop-color="#ED1164" stop-opacity="0"></stop> </linearGradient> <linearGradient id="paint15_linear_86_808" x1="-678.565" y1="231.8" x2="4166.13" y2="231.799" gradientUnits="userSpaceOnUse"> <stop offset="0.184606" stop-color="#ED33B3"></stop> <stop offset="0.357357" stop-color="#ED33B3" stop-opacity="0"></stop> </linearGradient> <linearGradient id="paint16_linear_86_808" x1="2799.08" y1="430.41" x2="-1519.74" y2="430.41" gradientUnits="userSpaceOnUse"> <stop offset="0.406372" stop-color="#7316B6" stop-opacity="0"></stop> <stop offset="0.542642" stop-color="#7316B6"></stop> </linearGradient> <linearGradient id="paint17_linear_86_808" x1="-454.52" y1="530.6" x2="3762.3" y2="530.599" gradientUnits="userSpaceOnUse"> <stop offset="0.184606" stop-color="#ED33B3"></stop> <stop offset="0.359729" stop-color="#ED33B3" stop-opacity="0"></stop> </linearGradient> <linearGradient id="paint18_linear_86_808" x1="1447.74" y1="423.242" x2="384.753" y2="423.242" gradientUnits="userSpaceOnUse"> <stop stop-color="#7316B6"></stop> <stop offset="1" stop-color="#7316B6" stop-opacity="0"></stop> </linearGradient> <linearGradient id="paint19_linear_86_808" x1="1449.63" y1="225.737" x2="386.644" y2="225.737" gradientUnits="userSpaceOnUse"> <stop stop-color="#7316B6"></stop> <stop offset="1" stop-color="#7316B6" stop-opacity="0.5"></stop> </linearGradient> <linearGradient id="paint20_linear_86_808" x1="1967.7" y1="4.24283" x2="-1027.93" y2="4.24349" gradientUnits="userSpaceOnUse"> <stop stop-color="#7316B6"></stop> <stop offset="1" stop-color="#7316B6" stop-opacity="0"></stop> </linearGradient> <linearGradient id="paint21_linear_86_808" x1="313.108" y1="645.709" x2="981.327" y2="645.709" gradientUnits="userSpaceOnUse"> <stop offset="0.154522" stop-color="#E82CF7"></stop> <stop offset="0.500378" stop-color="#E82CF7" stop-opacity="0"></stop> </linearGradient> <linearGradient id="paint22_linear_86_808" x1="1122.53" y1="406.459" x2="59.5451" y2="406.459" gradientUnits="userSpaceOnUse"> <stop stop-color="white"></stop> <stop offset="1" stop-color="white" stop-opacity="0"></stop> </linearGradient> <linearGradient id="paint23_linear_86_808" x1="1127.34" y1="115.475" x2="-985.612" y2="115.475" gradientUnits="userSpaceOnUse"> <stop stop-color="#7316B6"></stop> <stop offset="1" stop-color="#7316B6" stop-opacity="0.5"></stop> </linearGradient> <linearGradient id="paint24_linear_86_808" x1="1887.28" y1="658.57" x2="-551.701" y2="658.57" gradientUnits="userSpaceOnUse"> <stop stop-color="#7316B6"></stop> <stop offset="1" stop-color="#7316B6" stop-opacity="0"></stop> </linearGradient> <linearGradient id="paint25_linear_86_808" x1="469.787" y1="109.506" x2="1460.5" y2="109.506" gradientUnits="userSpaceOnUse"> <stop offset="0.277387" stop-color="#ED1164"></stop> <stop offset="0.52724" stop-color="#ED1164" stop-opacity="0"></stop> </linearGradient> <linearGradient id="paint26_linear_86_808" x1="-747.88" y1="429.687" x2="2220.44" y2="429.687" gradientUnits="userSpaceOnUse"> <stop offset="0.214982" stop-color="#ED1164"></stop> <stop offset="0.59515" stop-color="#ED1164" stop-opacity="0"></stop> </linearGradient> <linearGradient id="paint27_linear_86_808" x1="146.276" y1="406.466" x2="1293.64" y2="406.465" gradientUnits="userSpaceOnUse"> <stop offset="0.154522" stop-color="#E82CF7"></stop> <stop offset="0.500378" stop-color="#E82CF7" stop-opacity="0"></stop> </linearGradient> </defs> </svg> 